<svg width="30" height="30" viewBox="0 0 30 30" fill="none" xmlns="http://www.w3.org/2000/svg">
<path d="M17.0746 28.0297C17.768 28.0708 17.7811 28.9063 17.1877 28.9697C17.0893 28.9802 16.9838 28.9735 16.8847 28.9734L12.6786 28.9745C12.1949 28.9746 11.1738 29.1225 11.3238 28.2873C11.3841 27.9514 11.8843 27.779 12.1436 27.6404C12.3756 27.5161 13.715 26.8592 13.7559 26.6089C13.7919 26.3883 13.7759 26.1411 13.7763 25.9174L13.7751 24.682C13.7731 24.1697 13.8871 24.291 13.5679 24.1421C12.9645 23.8606 12.6426 23.2536 12.171 23.0048C11.9559 22.8913 11.6934 22.8477 11.459 22.7865L10.636 22.5494C7.3708 21.4985 4.40751 18.724 5.46348 15.0694C5.71796 14.1886 6.22442 13.4099 6.82524 12.7264L7.96735 11.4819C8.75204 10.5691 9.52694 9.42257 9.41708 8.15917C9.38614 7.80304 9.21598 7.38362 8.93221 7.15663C8.69567 6.96743 8.28317 7.08989 8.00444 7.11222C7.4175 7.15933 6.89672 7.08831 6.3235 6.97786C5.34791 6.78983 5.49733 6.80853 4.56041 6.99462L3.37282 7.17978C2.71117 7.25788 1.17688 7.18692 1.10178 6.27046C1.04874 5.62315 1.98311 5.42542 2.43256 5.23075C3.05285 4.96208 3.61565 4.6092 4.13122 4.17294C4.58401 3.78981 4.63812 3.65444 4.90604 3.13476C5.53477 1.91523 6.59285 1.01398 8.00596 0.870033L8.29729 0.860031C9.86344 0.865193 11.1178 1.98505 11.3514 3.52434C11.3969 3.82355 11.4157 4.12915 11.5014 4.42066C11.6045 4.77151 11.7572 5.10427 11.8775 5.44915C12.4695 7.14579 12.4952 8.30812 12.1495 10.0627C12.041 10.6133 11.8021 11.6446 12.2639 12.0923C12.5645 12.3838 12.9418 12.1074 13.2473 11.9686L13.7803 11.7508C15.7262 11.0415 17.8262 11.1617 19.7754 11.7904L21.194 12.3241C23.1823 13.1051 25.2421 14.0297 27.4252 13.8862C27.9616 13.851 28.9291 13.7216 28.9156 14.5679C28.9057 15.1907 28.0659 15.753 27.6523 16.1357C27.6724 16.1565 27.7647 16.1673 27.7956 16.1744L28.1925 16.2622C28.3448 16.2949 28.5185 16.328 28.6398 16.4327C28.7746 16.5491 28.8632 16.8534 28.7231 16.9956C28.5964 17.1243 28.4063 17.2265 28.2568 17.3315L27.6509 17.7816C25.6809 19.2858 24.0016 20.4678 21.7705 21.5524L20.4069 22.1473C19.6443 22.4532 19.3035 22.5633 18.6914 23.1299L18.0805 23.6912C17.3621 24.3407 17.072 24.3422 16.1627 24.3673L16.1572 27.1435C16.1557 27.4267 16.155 27.7836 16.04 28.0468L17.0746 28.0297ZM8.06602 1.77795C6.5884 1.96914 6.02532 2.88797 5.45059 4.08635C5.42722 4.13508 5.33719 4.2827 5.34702 4.33278L5.68983 5.87771C6.24528 6.09802 7.06108 6.22605 7.64485 6.2281C8.05688 6.2295 8.47916 6.10769 8.88914 6.18269C9.44151 6.28382 9.91969 6.80788 10.1331 7.30317C10.4956 8.14417 10.3177 9.21181 9.98842 10.0307C9.36639 11.5774 8.23752 12.3994 7.25661 13.6131C6.26643 14.8383 5.82747 16.6192 6.46067 18.1111C7.33764 20.1773 9.49875 21.2996 11.557 21.887C12.3137 22.103 12.6514 22.1018 13.2477 22.7379C13.7641 23.2888 13.6729 23.273 14.4338 23.4001C15.0185 23.4977 15.1863 23.4413 15.7656 23.424C16.6754 23.3969 16.9764 23.6366 17.6545 22.8994L18.0666 22.4721C18.9048 21.6623 19.6187 21.5129 20.6556 21.0602C22.4339 20.2837 24.1269 19.2878 25.6856 18.1335C26.2029 17.7505 26.6885 17.3012 27.2502 16.9868L26.8263 16.8346C24.4344 18.4298 22.2071 19.4882 19.3213 19.9662L17.146 20.2031L16.3086 20.2139C13.8039 20.2164 10.6755 19.578 9.20725 17.3625C8.74723 16.6684 8.4692 15.709 8.63743 14.8785C8.94411 13.3642 9.91325 13.9654 9.7684 14.4627C9.71866 14.6334 9.62391 14.7876 9.57182 14.9589C9.40161 15.5188 9.5754 16.1323 9.83649 16.635C10.735 18.3649 13.3969 19.185 15.2441 19.2962L17.1716 19.3007C19.5023 19.1187 21.6148 18.6551 23.7407 17.616L24.863 16.9995C25.7455 16.4784 26.523 15.8891 27.2944 15.215C27.4515 15.0777 27.6019 14.9218 27.7658 14.7938C26.3889 14.9221 25.0011 14.6631 23.6992 14.2211C23.5872 14.5538 23.3786 14.871 23.1794 15.1577C21.6053 17.4235 18.8568 18.7383 16.1167 18.7366C15.8634 18.7365 15.5927 18.7474 15.3429 18.7015L14.6642 18.5933C14.2345 18.503 12.9616 18.1529 12.6853 17.7685C12.4641 17.4607 12.7353 16.9918 13.125 17.0799C13.3011 17.1198 13.4685 17.2336 13.631 17.3119C14.7073 17.8297 15.9505 17.8724 17.1195 17.763C16.6466 17.6006 16.1494 17.3603 15.7136 17.1144C14.7608 16.5768 15.3019 15.9018 15.7782 16.1037C15.9808 16.1896 16.1754 16.3177 16.3718 16.4187L17.4136 16.9161C17.8511 17.1122 18.5029 17.4738 18.9837 17.2919L19.8831 16.9473C19.5323 16.8491 19.1891 16.6813 18.8525 16.5412L18.1313 16.2354C17.9568 16.1597 17.7777 16.0856 17.6158 15.9851C17.071 15.6467 17.4129 14.9391 18.1624 15.2291L20.403 16.2009C20.5163 16.2446 20.6396 16.2969 20.7601 16.3149C21.2929 16.0642 22.0459 15.153 22.3994 14.7037C22.4684 14.616 22.5858 14.4977 22.6274 14.396L20.6699 14.8168C20.0925 14.9175 18.6193 14.8844 18.2153 14.6023C17.8919 14.3763 17.9671 13.824 18.3816 13.7931C18.54 13.7812 18.7244 13.8371 18.8791 13.8677C20.0227 14.0941 20.9174 13.9042 22.0265 13.6492L20.1367 12.8661C19.4624 12.6061 18.7409 12.4046 18.0287 12.2824L17.3392 12.1945C16.1752 12.05 14.8139 12.2643 13.7553 12.7367C12.9684 13.0878 12.2369 13.533 11.5121 12.6098C10.7692 11.6637 11.1572 10.4663 11.3476 9.40927C11.5921 8.05183 11.4078 6.66831 10.9028 5.38949C10.8025 5.13532 10.6771 4.89323 10.6113 4.62644C10.5128 4.22728 10.519 3.80827 10.4078 3.40985C10.1223 2.38768 9.21868 1.71642 8.16645 1.77131C8.14137 1.77262 8.0884 1.76912 8.06602 1.77795ZM4.50134 5.03173C4.20942 5.39007 3.45609 5.74179 3.04699 5.93237L2.30451 6.26923L2.5936 6.28183C2.76805 6.2748 2.94599 6.27731 3.11986 6.26384L3.86297 6.18192C4.17507 6.14964 4.46587 6.13622 4.76777 6.04007C4.76162 5.6942 4.69322 5.34115 4.52824 5.03278L4.50134 5.03173ZM14.6762 24.4154L14.6769 26.7484C14.6766 26.9741 14.6822 27.0913 14.5127 27.261C14.2569 27.5172 13.8926 27.7055 13.5708 27.8666C13.4636 27.9203 13.2805 27.9851 13.1956 28.0651L13.8203 28.0519C14.0601 28.0555 14.3518 28.0879 14.5837 28.0317C14.7796 27.9842 15.2206 27.7162 15.2435 27.4805L15.2519 24.4189L14.6762 24.4154Z" fill="black"/>
<path d="M7.46344 3.67316C6.87059 3.6198 6.7858 2.80556 7.44832 2.73006C8.13862 2.76505 8.07446 3.5951 7.46344 3.67316Z" fill="black"/>
</svg>
