<svg width="99" height="138" viewBox="0 0 99 138" fill="none" xmlns="http://www.w3.org/2000/svg">
<path d="M94.0998 137.146C95.9833 137.581 97.8625 136.406 98.2972 134.523C98.7319 132.639 97.5574 130.76 95.6739 130.325L94.0998 137.146ZM38.3216 3.06318C37.9503 1.1662 36.1114 -0.070568 34.2144 0.300797L3.30122 6.35252C1.40423 6.72388 0.167471 8.56275 0.538833 10.4597C0.910201 12.3567 2.74906 13.5935 4.64605 13.2221L32.1245 7.84281L37.5038 35.3212C37.8751 37.2182 39.714 38.455 41.611 38.0836C43.508 37.7122 44.7447 35.8734 44.3734 33.9764L38.3216 3.06318ZM95.6739 130.325C70.6466 124.55 46.9709 106.802 34.199 83.728C21.5106 60.8052 19.6063 32.7267 37.7911 5.6889L31.9826 1.78229C12.1673 31.2445 14.2629 62.1658 28.0746 87.118C41.8027 111.919 67.127 130.921 94.0998 137.146L95.6739 130.325Z" fill="black"/>
</svg>
