<svg width="99" height="138" viewBox="0 0 99 138" fill="none" xmlns="http://www.w3.org/2000/svg">
<path d="M4.67374 137.146C2.79025 137.581 0.911011 136.406 0.476349 134.523C0.041687 132.639 1.2162 130.76 3.09969 130.325L4.67374 137.146ZM60.4519 3.06318C60.8233 1.1662 62.6621 -0.070568 64.5591 0.300797L95.4723 6.35252C97.3693 6.72388 98.6061 8.56275 98.2347 10.4597C97.8634 12.3567 96.0245 13.5935 94.1275 13.2221L66.6491 7.84281L61.2698 35.3212C60.8984 37.2182 59.0596 38.455 57.1626 38.0836C55.2656 37.7122 54.0288 35.8734 54.4002 33.9764L60.4519 3.06318ZM3.09969 130.325C28.127 124.55 51.8027 106.802 64.5746 83.728C77.2629 60.8052 79.1672 32.7267 60.9825 5.6889L66.791 1.78229C86.6063 31.2445 84.5106 62.1658 70.699 87.118C56.9709 111.919 31.6465 130.921 4.67374 137.146L3.09969 130.325Z" fill="black"/>
</svg>
