<svg width="21" height="14" viewBox="0 0 21 14" fill="none" xmlns="http://www.w3.org/2000/svg">
<path d="M13.8798 5.32448L10.7327 7.87288L9.69263 6.5382C9.48033 6.2664 9.08962 6.21844 8.81854 6.43254C8.54816 6.64595 8.50044 7.03871 8.71274 7.31121L10.1421 9.14431C10.2445 9.27569 10.3959 9.36119 10.5612 9.37996C10.5847 9.38274 10.6082 9.38413 10.6317 9.38413C10.7735 9.38413 10.9111 9.33547 11.0217 9.2458L14.6598 6.30046C14.9274 6.08288 14.9696 5.68943 14.7546 5.42041C14.5402 5.15208 14.1474 5.1069 13.8798 5.32448Z" fill="black"/>
<path d="M20.7045 11.4954L18.5463 1.97538C18.3817 1.25173 17.7517 0.745667 17.0125 0.745667H3.85352C3.81964 0.745667 3.78713 0.754008 3.75394 0.756789C3.06657 0.80823 2.49192 1.29205 2.33702 1.97608L0.176708 11.494C0.0695224 11.966 0.180166 12.4533 0.480285 12.8308C0.780405 13.2089 1.22851 13.4258 1.70912 13.4258H3.15509C3.49877 13.4258 3.77745 13.1457 3.77745 12.8002C3.77745 12.4547 3.49877 12.1746 3.15509 12.1746H1.70912C1.5715 12.1746 1.4899 12.0974 1.45325 12.0508C1.4166 12.0049 1.3599 11.9069 1.39033 11.7728L3.11152 4.19081L4.92745 12.1982C5.09134 12.9218 5.72201 13.4279 6.45986 13.4279H19.1714C19.6527 13.4279 20.1008 13.2103 20.4002 12.8329C20.7003 12.4547 20.811 11.9674 20.7045 11.4954ZM19.4272 12.0522C19.3906 12.0981 19.3083 12.176 19.1714 12.176H6.45986C6.30634 12.176 6.17495 12.071 6.14107 11.9201L3.8549 2.00458C3.86044 2.00458 3.86389 1.99971 3.86943 1.99971H10.1076C10.1097 1.99971 10.1118 1.99832 10.1145 1.99832H17.0125C17.1667 1.99832 17.2981 2.10329 17.3319 2.25413L19.4902 11.7735C19.5213 11.9083 19.4639 12.0056 19.4272 12.0522Z" fill="black"/>
</svg>
