<svg width="50" height="50" viewBox="0 0 50 50" fill="none" xmlns="http://www.w3.org/2000/svg">
<mask id="mask0_354_652" style="mask-type:luminance" maskUnits="userSpaceOnUse" x="0" y="0" width="50" height="50">
<path d="M0 0H50V50H0V0Z" fill="white"/>
</mask>
<g mask="url(#mask0_354_652)">
<path fill-rule="evenodd" clip-rule="evenodd" d="M10.4492 5.46875C10.4492 4.33613 11.3674 3.41797 12.5 3.41797H14.4531C15.5857 3.41797 16.5039 4.33613 16.5039 5.46875V7.32422H33.4961V5.46875C33.4961 4.33613 34.4143 3.41797 35.5469 3.41797H37.5C38.6326 3.41797 39.5508 4.33613 39.5508 5.46875V7.32422H41.6016C44.3522 7.32422 46.582 9.55405 46.582 12.3047V41.6016C46.582 44.3522 44.3522 46.582 41.6016 46.582H8.39844C5.6478 46.582 3.41797 44.3522 3.41797 41.6016V12.3047C3.41797 9.55405 5.6478 7.32422 8.39844 7.32422H10.4492V5.46875ZM39.5508 9.47266V11.3281C39.5508 12.4607 38.6326 13.3789 37.5 13.3789H35.5469C34.4143 13.3789 33.4961 12.4607 33.4961 11.3281V9.47266H16.5039V11.3281C16.5039 12.4607 15.5857 13.3789 14.4531 13.3789H12.5C11.3674 13.3789 10.4492 12.4607 10.4492 11.3281V9.47266H8.39844C6.83435 9.47266 5.56641 10.7406 5.56641 12.3047V14.3555H44.4336V12.3047C44.4336 10.7406 43.1656 9.47266 41.6016 9.47266H39.5508ZM12.5977 5.56641V11.2305H14.3555V5.56641H12.5977ZM5.56641 16.5039V41.6016C5.56641 43.1656 6.83435 44.4336 8.39844 44.4336H41.6016C43.1656 44.4336 44.4336 43.1656 44.4336 41.6016V16.5039H5.56641ZM35.6445 11.2305V5.56641H37.4023V11.2305H35.6445Z" fill="white"/>
<path fill-rule="evenodd" clip-rule="evenodd" d="M23.6489 21.4729C24.2516 20.438 25.7466 20.438 26.3493 21.4729L28.8462 25.7597L33.6948 26.8097C34.8652 27.0631 35.3271 28.4849 34.5292 29.3778L31.2237 33.0773L31.7235 38.013C31.8441 39.2044 30.6347 40.0831 29.5388 39.6002L24.9991 37.5997L20.4593 39.6002C19.3635 40.0831 18.1541 39.2044 18.2747 38.013L18.7745 33.0773L15.4689 29.3778C14.6711 28.4849 15.133 27.0631 16.3034 26.8097L21.152 25.7597L23.6489 21.4729ZM24.9991 23.4234L22.8786 27.0641C22.6578 27.4432 22.2879 27.7119 21.8591 27.8048L17.7413 28.6965L20.5485 31.8383C20.8408 32.1653 20.9821 32.6003 20.938 33.0367L20.5135 37.2285L24.369 35.5295C24.7705 35.3526 25.2277 35.3526 25.6292 35.5295L29.4846 37.2285L29.0602 33.0367C29.016 32.6003 29.1574 32.1653 29.4497 31.8383L32.2569 28.6965L28.1391 27.8048C27.7103 27.7119 27.3404 27.4432 27.1196 27.0641L24.9991 23.4234Z" fill="white"/>
</g>
</svg>
