<svg width="39" height="50" viewBox="0 0 39 50" fill="none" xmlns="http://www.w3.org/2000/svg">
<path d="M9.92789 12.6049C9.92483 12.6084 9.9214 12.6114 9.91796 12.6148C9.8107 12.7252 9.71375 12.8427 9.62634 12.9656C9.42442 12.8416 9.21142 12.7278 8.99156 12.629C7.37885 11.9022 5.48024 12.7988 5.40046 12.8374L4.91989 13.0687L5.06456 13.5821C5.08861 13.6676 5.67415 15.6841 7.28648 16.4105C7.95255 16.7109 8.65146 16.8728 9.27402 16.8728C9.29769 16.8728 9.32097 16.872 9.34464 16.8713L9.55267 18.626C9.56717 18.9821 9.64313 19.3523 9.77215 19.7123V27.6972C9.77215 28.4572 9.86147 29.121 10.0443 29.7245C10.2737 30.4902 10.655 31.1574 11.2032 31.7612L13.3255 39.0137L12.8151 48.2166H12.4334C12.0857 48.2166 11.7822 48.4849 11.7719 48.8327C11.7612 49.1922 12.0494 49.4869 12.4067 49.4869H16.0638L17.1051 40.163V39.1408L21.1737 48.2166H20.7913C20.4431 48.2166 20.1401 48.4849 20.1298 48.8327C20.1187 49.1922 20.4073 49.4869 20.7645 49.4869H25.495L22.4334 42.5307L22.4036 42.4692C21.5669 40.9394 21.4142 39.1022 21.3863 38.4636C21.8688 37.8788 22.4303 37.0009 22.7429 35.8371C23.7025 36.0963 25.1446 36.394 27.3925 36.394C28.1494 36.394 28.9022 36.3249 29.6419 36.1909C29.9522 37.396 30.5217 38.3186 31.3374 38.9362C32.0073 39.4438 32.4009 40.1893 32.4253 40.992L30.4828 48.2166H29.8778C29.5301 48.2166 29.227 48.4849 29.2163 48.8327C29.2056 49.1922 29.4938 49.4869 29.8511 49.4869H33.2689L34.864 44.0167V48.2166H34.519C34.1709 48.2166 33.8678 48.4846 33.8571 48.8319C33.8464 49.1919 34.135 49.4869 34.4922 49.4869H38.104V43.2036L38.696 38.2243C38.8368 37.249 38.4349 36.8173 38.1822 36.6467C37.557 36.2241 37.2436 35.4947 37.2253 34.4194L37.9692 32.1479L38.1704 31.0837C38.3047 30.3711 38.3158 29.6527 38.212 28.9549V25.6761C38.212 23.8569 37.336 22.109 35.8088 20.8799C35.519 20.6467 35.1121 20.6009 34.7724 20.7639C34.4514 20.9173 34.2522 21.2273 34.2522 21.572V23.9618C33.5113 23.6679 32.7131 23.511 31.8932 23.511H29.8782C29.5301 23.511 29.227 23.7794 29.2163 24.1267C29.2056 24.4867 29.4942 24.7814 29.8515 24.7814H31.8176C33.2868 24.7814 34.7064 25.3776 35.6904 26.4685C36.7691 27.6644 37.2188 29.2752 36.9218 30.8478L36.7367 31.8307L35.9542 34.2187V34.3202C35.9542 35.8646 36.4531 36.9933 37.4375 37.6762C37.452 37.7223 37.4684 37.8411 37.4383 38.0487L36.8382 43.091L36.8336 43.1285V48.2162H36.1343V40.2439C36.1343 40.0485 36.1202 39.8538 36.0924 39.6648L36.0847 39.6141C35.9217 38.5751 35.366 37.6391 34.5186 36.9784C33.9292 36.5196 33.462 35.6543 33.1685 34.4767L33.1601 34.4446C33.0631 34.0492 32.986 33.6205 32.9314 33.1697C32.9024 32.9342 32.8807 32.6934 32.8666 32.4506C32.8494 32.1739 32.6967 31.9246 32.4578 31.7834C32.2196 31.6429 31.9272 31.6295 31.676 31.7483C30.5752 32.2712 29.4098 32.5361 28.2116 32.5361C26.242 32.5361 24.6545 32.2475 23.3567 31.6528C23.1101 31.541 22.8636 31.4162 22.6219 31.2814C22.3192 31.1131 21.9509 31.1471 21.6833 31.3681C21.4169 31.5883 21.315 31.9429 21.4226 32.2704C21.6074 32.8323 21.799 33.7217 21.6635 34.7733C21.6566 34.8294 21.6478 34.8855 21.6394 34.9378L21.6367 34.9554C21.4104 36.3352 20.7115 37.3067 20.3157 37.7628C20.1836 37.9147 20.1111 38.1098 20.1111 38.3121V38.3251C20.1237 38.9556 20.2454 41.1554 21.2776 43.0575L23.5483 48.2166H22.5662L16.9689 35.7314C16.8543 35.2714 16.6658 34.8267 16.4127 34.4152L14.774 30.5314C14.6114 30.1462 14.3614 29.8054 14.0499 29.5263C13.5125 29.0443 13.2045 28.3549 13.2045 27.6327V26.4578C13.2045 26.1101 12.9365 25.807 12.5888 25.7963C12.2292 25.7856 11.9341 26.0742 11.9341 26.4315V27.5273C11.9341 28.6477 12.3762 29.7412 13.2151 30.4837C13.3823 30.6318 13.5167 30.8192 13.6037 31.0253L14.2003 32.4391C13.3216 31.9448 12.6914 31.4853 12.2303 31.0035C11.7639 30.5169 11.4471 29.979 11.2608 29.358C11.1142 28.874 11.0429 28.3308 11.0429 27.6976V21.5014C11.5104 21.8575 12.0372 22.0525 12.5693 22.0525H13.3602C14.2564 22.0525 15.0447 21.5281 15.5909 20.7895L16.0237 21.9342C16.6719 23.6481 18.3132 24.7817 20.1454 24.7817H26.255C26.6027 24.7817 26.9058 24.5138 26.9165 24.166C26.9272 23.8065 26.6386 23.5114 26.2814 23.5114H20.1454C18.8491 23.5114 17.6704 22.6969 17.212 21.4846L16.5616 19.765C16.423 19.3985 16.3623 19.0073 16.3768 18.616L16.3772 18.6103L16.5753 16.8716C16.5978 16.872 16.62 16.8732 16.6429 16.8732C17.2651 16.8732 17.9643 16.7113 18.63 16.4109C20.2424 15.6841 20.8287 13.6684 20.8531 13.5829L20.9981 13.0691L20.5172 12.8378C20.437 12.7988 18.5377 11.903 16.9253 12.6294C16.7024 12.7297 16.4875 12.8446 16.2848 12.9695C16.2001 12.8496 16.1058 12.7351 16.002 12.6267C21.1585 11.338 25.0416 6.79764 25.3355 1.31939C25.3553 0.956008 25.0649 0.650261 24.7011 0.650261C24.3659 0.650261 24.0854 0.909821 24.0675 1.2442C23.8747 4.87117 21.9284 8.04048 19.0633 9.91809C19.9744 8.67602 20.5141 7.14499 20.5141 5.48953V4.06386C20.5141 3.71307 20.2298 3.42908 19.8794 3.42908H19.879C19.5282 3.42908 19.2438 3.71307 19.2438 4.06386V5.48915C19.2438 7.7855 17.9953 9.79404 16.1425 10.8762C16.2993 10.4865 16.3867 10.0616 16.3867 9.61654V7.50914C16.3867 7.15874 16.1024 6.87436 15.752 6.87436H15.7512C15.4008 6.87436 15.1164 7.15835 15.1164 7.50914V9.56501C15.1164 10.7059 14.2309 11.6793 13.0903 11.7224C11.8918 11.7678 10.902 10.8056 10.902 9.61654V7.50914C10.902 7.15874 10.6176 6.87436 10.2668 6.87436H10.2665C9.91605 6.87436 9.63168 7.15835 9.63168 7.50914V9.61654C9.63168 10.0616 9.71871 10.4865 9.87598 10.8762C8.02317 9.79404 6.77461 7.7855 6.77461 5.48953V4.06386C6.77461 3.71307 6.49024 3.42908 6.13945 3.42908H6.13907C5.78828 3.42908 5.50391 3.71307 5.50391 4.06386V5.48915C5.50391 7.14461 6.04402 8.67564 6.95515 9.91809C4.08968 8.0401 2.14336 4.87117 1.9506 1.24381C1.93266 0.909821 1.6521 0.649879 1.31734 0.649879C0.953196 0.649879 0.663099 0.955626 0.682566 1.31901C0.974954 6.76634 4.81492 11.2865 9.92789 12.6049ZM7.80865 15.2524C7.15326 14.9574 6.73109 14.2715 6.50169 13.7821C7.02081 13.6294 7.81438 13.492 8.47015 13.7874C8.70604 13.8932 8.93011 14.0195 9.13241 14.1588C9.09997 14.3505 9.08661 14.5467 9.09271 14.7459L9.19425 15.6017C8.76903 15.5887 8.28464 15.4673 7.80865 15.2524ZM36.9417 25.9895C36.8985 25.9337 36.8562 25.8772 36.8107 25.8226C36.4325 25.3657 35.9981 24.9699 35.5221 24.6409V22.3331C36.4313 23.2683 36.9417 24.4558 36.9417 25.6761V25.9895ZM32.1356 35.4733C32.5085 36.5994 33.0456 37.4418 33.7376 37.9808C34.293 38.4136 34.6682 39.0133 34.8052 39.6805L32.3161 48.217H31.7982L33.6968 41.1554V41.0714C33.6968 39.8374 33.1166 38.6904 32.1043 37.9235C31.5291 37.488 31.118 36.8082 30.8798 35.9016C31.35 35.7665 31.7672 35.6188 32.1356 35.4733ZM28.2113 33.8068C29.3938 33.8068 30.5477 33.5843 31.6497 33.1453C31.6562 33.2048 31.663 33.2648 31.6703 33.3239C31.7085 33.6366 31.7573 33.94 31.8146 34.2332C31.4187 34.3939 30.9653 34.5603 30.4404 34.7065C29.4518 34.9836 28.4265 35.1241 27.3925 35.1241C25.2118 35.1241 23.8491 34.8256 22.9586 34.579C23.0029 33.9973 22.9731 33.4064 22.8697 32.8273C24.327 33.4862 26.0748 33.8068 28.2113 33.8068ZM13.8083 33.6743L14.1576 33.8961C14.4698 34.0942 14.7488 34.3343 14.987 34.6091C15.0592 34.6927 15.126 34.7798 15.1897 34.8687L15.7615 36.144C15.8092 36.3627 15.8348 36.5723 15.8348 36.7673V40.0924L14.9275 48.2166H14.0873L14.6061 38.8663L12.938 33.1667C13.2048 33.3342 13.493 33.5026 13.8083 33.6743ZM16.7769 14.1646C16.9799 14.0237 17.2063 13.8959 17.4471 13.7871C18.1018 13.492 18.8953 13.6294 19.4144 13.7817C19.1835 14.2718 18.7598 14.9589 18.1079 15.2524C17.6307 15.4677 17.1448 15.5891 16.7196 15.6017L16.8127 14.786L16.8166 14.7306C16.8215 14.5386 16.8078 14.3493 16.7769 14.1646ZM13.3598 20.7822H12.5689C12.1624 20.7822 11.7315 20.5154 11.3807 20.0493C11.5425 19.3268 12.188 18.7847 12.9583 18.7847C13.7331 18.7847 14.382 19.3329 14.5393 20.0612C14.2194 20.4826 13.7976 20.7822 13.3598 20.7822ZM10.8299 13.4989C11.1455 13.1737 11.5692 12.9943 12.0223 12.9943H13.8866C14.3381 12.9943 14.7607 13.1725 15.076 13.4958C15.3851 13.8134 15.552 14.2302 15.547 14.6722L15.113 18.4821C14.5836 17.8889 13.814 17.5144 12.9583 17.5144C12.1067 17.5144 11.3406 17.8851 10.8115 18.4733L10.3619 14.681C10.3546 14.2371 10.5203 13.8184 10.8299 13.4989Z" fill="black"/>
</svg>
