<svg width="36" height="44" viewBox="0 0 36 44" fill="none" xmlns="http://www.w3.org/2000/svg">
<path d="M9.18686 10.771C9.18411 10.7741 9.18101 10.7769 9.17792 10.78C9.08128 10.8794 8.99393 10.9853 8.91518 11.096C8.73325 10.9842 8.54136 10.8818 8.34327 10.7927C6.8903 10.1379 5.17975 10.9457 5.10787 10.9805L4.6749 11.1889L4.80524 11.6514C4.82691 11.7284 5.35445 13.5453 6.80708 14.1997C7.40718 14.4704 8.03686 14.6162 8.59776 14.6162C8.61908 14.6162 8.64006 14.6155 8.66138 14.6148L8.8488 16.1957C8.86187 16.5166 8.93031 16.8501 9.04655 17.1744V24.3685C9.04655 25.0532 9.12702 25.6512 9.29175 26.1949C9.49843 26.8848 9.84198 27.4859 10.3358 28.03L12.2479 34.564L11.7881 42.8555H11.4442C11.1309 42.8555 10.8575 43.0972 10.8482 43.4105C10.8386 43.7345 11.0982 44 11.4201 44H14.715L15.6532 35.5995V34.6786L19.3188 42.8555H18.9742C18.6606 42.8555 18.3875 43.0972 18.3782 43.4105C18.3683 43.7345 18.6283 44 18.9501 44H23.2121L20.4537 37.7327L20.4269 37.6774C19.673 36.299 19.5355 34.6438 19.5104 34.0685C19.945 33.5416 20.4509 32.7507 20.7326 31.7021C21.5971 31.9356 22.8964 32.2039 24.9216 32.2039C25.6036 32.2039 26.2817 32.1416 26.9482 32.0209C27.2278 33.1066 27.7409 33.9378 28.4758 34.4942C29.0793 34.9516 29.4339 35.6233 29.4559 36.3465L27.7058 42.8555H27.1607C26.8474 42.8555 26.5744 43.0972 26.5648 43.4105C26.5551 43.7345 26.8148 44 27.1367 44H30.2159L31.6531 39.0715V42.8555H31.3422C31.0286 42.8555 30.7555 43.0969 30.7459 43.4098C30.7363 43.7341 30.9962 44 31.3181 44H34.5721V38.339L35.1055 33.8529C35.2324 32.9742 34.8703 32.5853 34.6426 32.4315C34.0793 32.0508 33.797 31.3936 33.7804 30.4249L34.4507 28.3783L34.6319 27.4195C34.753 26.7775 34.763 26.1303 34.6694 25.5016V22.5475C34.6694 20.9085 33.8802 19.3338 32.5042 18.2264C32.2432 18.0163 31.8766 17.975 31.5706 18.1219C31.2813 18.2601 31.1018 18.5394 31.1018 18.8499V21.0031C30.4343 20.7383 29.7152 20.5969 28.9765 20.5969H27.1611C26.8474 20.5969 26.5744 20.8387 26.5648 21.1516C26.5551 21.4759 26.8151 21.7414 27.137 21.7414H28.9084C30.2321 21.7414 31.5111 22.2786 32.3976 23.2615C33.3695 24.3389 33.7746 25.7901 33.507 27.207L33.3403 28.0926L32.6353 30.244V30.3355C32.6353 31.7269 33.0847 32.7438 33.9717 33.359C33.9847 33.4006 33.9995 33.5076 33.9723 33.6947L33.4317 38.2376L33.4276 38.2713V42.8551H32.7976V35.6724C32.7976 35.4964 32.7849 35.321 32.7598 35.1507L32.7529 35.105C32.606 34.1689 32.1053 33.3257 31.3419 32.7304C30.8109 32.317 30.3899 31.5374 30.1255 30.4765L30.1179 30.4476C30.0306 30.0913 29.9611 29.7051 29.9119 29.299C29.8858 29.0868 29.8662 28.8698 29.8535 28.651C29.838 28.4017 29.7004 28.1772 29.4851 28.0499C29.2706 27.9234 29.0071 27.9113 28.7808 28.0183C27.789 28.4894 26.7391 28.7281 25.6596 28.7281C23.8851 28.7281 22.4548 28.4681 21.2856 27.9323C21.0634 27.8315 20.8412 27.7191 20.6236 27.5977C20.3508 27.446 20.019 27.4766 19.7779 27.6757C19.5379 27.8742 19.4461 28.1937 19.543 28.4887C19.7095 28.9949 19.8821 29.7962 19.76 30.7437C19.7538 30.7942 19.7459 30.8448 19.7384 30.8919L19.736 30.9077C19.532 32.1509 18.9023 33.0261 18.5457 33.4371C18.4267 33.574 18.3614 33.7497 18.3614 33.932V33.9437C18.3727 34.5118 18.4824 36.4937 19.4123 38.2073L21.4582 42.8555H20.5734L15.5304 31.6069C15.4272 31.1925 15.2574 30.7918 15.0294 30.4211L13.553 26.9219C13.4065 26.5749 13.1812 26.2678 12.9006 26.0164C12.4164 25.5821 12.1389 24.961 12.1389 24.3103V23.2518C12.1389 22.9385 11.8975 22.6655 11.5842 22.6558C11.2602 22.6462 10.9944 22.9062 10.9944 23.2281V24.2154C10.9944 25.2248 11.3926 26.21 12.1485 26.8789C12.2991 27.0124 12.4202 27.1812 12.4986 27.3669L13.0361 28.6407C12.2445 28.1954 11.6767 27.7813 11.2613 27.3473C10.841 26.9088 10.5556 26.4243 10.3878 25.8648C10.2557 25.4287 10.1914 24.9393 10.1914 24.3688V18.7863C10.6127 19.1071 11.0872 19.2829 11.5666 19.2829H12.2792C13.0867 19.2829 13.7968 18.8104 14.2889 18.1449L14.6789 19.1763C15.2629 20.7204 16.7416 21.7418 18.3923 21.7418H23.8968C24.2101 21.7418 24.4831 21.5003 24.4928 21.1871C24.5024 20.8631 24.2424 20.5973 23.9205 20.5973H18.3923C17.2245 20.5973 16.1625 19.8634 15.7495 18.7712L15.1635 17.2219C15.0386 16.8918 14.984 16.5393 14.997 16.1868L14.9974 16.1816L15.1759 14.6151C15.1961 14.6155 15.2161 14.6165 15.2367 14.6165C15.7973 14.6165 16.4273 14.4707 17.0271 14.2001C18.4797 13.5453 19.0079 11.7291 19.0299 11.6521L19.1606 11.1892L18.7273 10.9808C18.6551 10.9457 16.9438 10.1386 15.4912 10.793C15.2904 10.8835 15.0968 10.987 14.9142 11.0995C14.8378 10.9915 14.7529 10.8883 14.6593 10.7906C19.3051 9.62963 22.8035 5.53895 23.0683 0.603302C23.0862 0.27591 22.8245 0.000446896 22.4968 0.000446896C22.1948 0.000446896 21.9421 0.234298 21.9259 0.535554C21.7522 3.80329 19.9987 6.65868 17.4174 8.35032C18.2383 7.23127 18.7246 5.85189 18.7246 4.3604V3.07594C18.7246 2.7599 18.4683 2.50403 18.1526 2.50403H18.1523C17.8363 2.50403 17.5801 2.7599 17.5801 3.07594V4.36006C17.5801 6.42896 16.4552 8.23855 14.7859 9.21351C14.9272 8.86239 15.006 8.47963 15.006 8.07864V6.17997C15.006 5.86427 14.7498 5.60807 14.4341 5.60807H14.4334C14.1177 5.60807 13.8615 5.86393 13.8615 6.17997V8.03222C13.8615 9.06013 13.0636 9.93707 12.0361 9.97593C10.9562 10.0169 10.0645 9.14989 10.0645 8.07864V6.17997C10.0645 5.86427 9.80828 5.60807 9.49224 5.60807H9.49189C9.1762 5.60807 8.91999 5.86393 8.91999 6.17997V8.07864C8.91999 8.47963 8.9984 8.86239 9.14009 9.21351C7.4708 8.23855 6.34591 6.42896 6.34591 4.3604V3.07594C6.34591 2.7599 6.0897 2.50403 5.77366 2.50403H5.77331C5.45727 2.50403 5.20107 2.7599 5.20107 3.07594V4.36006C5.20107 5.85155 5.68768 7.23093 6.50857 8.35032C3.92692 6.65834 2.17338 3.80329 1.99971 0.53521C1.98355 0.234298 1.73078 0.000102997 1.42918 0.000102997C1.1011 0.000102997 0.83974 0.275566 0.857279 0.602959C1.12071 5.51075 4.58033 9.5832 9.18686 10.771ZM7.27753 13.1563C6.68706 12.8905 6.3067 12.2725 6.10002 11.8316C6.56772 11.6941 7.28269 11.5703 7.87351 11.8364C8.08604 11.9317 8.2879 12.0455 8.47017 12.171C8.44094 12.3437 8.4289 12.5204 8.43441 12.7L8.52588 13.471C8.14278 13.4593 7.70637 13.3499 7.27753 13.1563ZM33.5249 22.8299C33.4861 22.7797 33.4479 22.7288 33.407 22.6796C33.0662 22.2679 32.6748 21.9113 32.246 21.6149V19.5356C33.0651 20.3782 33.5249 21.4481 33.5249 22.5475V22.8299ZM29.1949 31.3744C29.5309 32.3889 30.0148 33.1479 30.6382 33.6335C31.1386 34.0234 31.4767 34.5637 31.6001 35.1648L29.3576 42.8558H28.8909L30.6014 36.4937V36.418C30.6014 35.3062 30.0787 34.2728 29.1667 33.5819C28.6484 33.1895 28.2781 32.577 28.0635 31.7602C28.4872 31.6385 28.863 31.5054 29.1949 31.3744ZM25.6593 29.8729C26.7247 29.8729 27.7643 29.6724 28.7571 29.2769C28.763 29.3306 28.7692 29.3846 28.7757 29.4379C28.8101 29.7195 28.8541 29.9929 28.9057 30.2571C28.5491 30.4018 28.1405 30.5518 27.6676 30.6835C26.7769 30.9332 25.8532 31.0597 24.9216 31.0597C22.9569 31.0597 21.7292 30.7908 20.9269 30.5686C20.9668 30.0445 20.9399 29.5122 20.8468 28.9905C22.1598 29.584 23.7345 29.8729 25.6593 29.8729ZM12.6829 29.7536L12.9976 29.9534C13.2789 30.1319 13.5303 30.3482 13.7449 30.5958C13.8099 30.6711 13.8701 30.7495 13.9275 30.8296L14.4427 31.9786C14.4857 32.1757 14.5087 32.3645 14.5087 32.5402V35.5359L13.6912 42.8555H12.9343L13.4017 34.4313L11.8988 29.2962C12.1392 29.4472 12.3989 29.5988 12.6829 29.7536ZM15.3574 12.1762C15.5404 12.0493 15.7443 11.9341 15.9613 11.8361C16.5511 11.5703 17.2661 11.6941 17.7338 11.8313C17.5257 12.2728 17.144 12.8919 16.5566 13.1563C16.1267 13.3503 15.689 13.4596 15.3059 13.471L15.3898 12.7361L15.3932 12.6862C15.3977 12.5132 15.3853 12.3426 15.3574 12.1762ZM12.2789 18.1384H11.5663C11.2 18.1384 10.8118 17.898 10.4957 17.4781C10.6415 16.8271 11.2231 16.3388 11.9171 16.3388C12.6152 16.3388 13.1998 16.8326 13.3415 17.4888C13.0533 17.8684 12.6733 18.1384 12.2789 18.1384ZM9.99949 11.5764C10.2839 11.2834 10.6656 11.1218 11.0738 11.1218H12.7534C13.1603 11.1218 13.541 11.2824 13.825 11.5737C14.1036 11.8598 14.2539 12.2354 14.2494 12.6336L13.8584 16.066C13.3814 15.5316 12.6881 15.1943 11.9171 15.1943C11.1498 15.1943 10.4596 15.5282 9.98298 16.0581L9.57787 12.6415C9.57134 12.2415 9.72059 11.8643 9.99949 11.5764Z" fill="white"/>
</svg>
