<svg width="38" height="44" viewBox="0 0 38 44" fill="none" xmlns="http://www.w3.org/2000/svg">
<path d="M27.4602 43.2901H26.7581C25.4034 43.2901 24.301 42.1877 24.301 40.833V35.2167C24.301 33.2121 25.1683 31.7511 25.9341 30.4622C26.4318 29.6244 26.9014 28.8333 27.1448 27.9242C27.4848 26.6572 27.3272 25.7516 27.1441 24.7026C26.9563 23.6249 26.7437 22.4032 27.1407 20.8168C27.7159 18.5156 30.3552 17.9569 31.3536 17.7717C31.9837 17.6549 32.516 17.2002 32.6678 16.7173L28.3226 13.7381C27.8434 13.4091 27.7207 12.7536 28.0498 12.2741C28.3802 11.7945 29.0343 11.6735 29.5142 12.0009L34.3935 15.3465C34.6615 15.5306 34.8295 15.8285 34.8487 16.1531C34.9015 17.0447 34.4339 18.9352 32.2894 19.7068C32.1818 19.7524 32.02 19.7853 31.7752 19.8354C31.0759 19.9783 29.4374 20.3135 29.1837 21.3275C28.8951 22.4813 29.0452 23.3431 29.2194 24.3413C29.3976 25.3663 29.5978 26.5153 29.2907 27.9996C29.7658 29.9514 31.719 32.75 32.4512 33.6879C32.7858 34.1163 32.7398 34.7286 32.3449 35.1015C32.3353 35.1104 31.1657 36.2437 30.5576 37.9385C30.3609 38.4856 29.7596 38.768 29.2105 38.574C28.6634 38.3772 28.3788 37.7746 28.5749 37.2268C29.0411 35.929 29.7514 34.9041 30.2642 34.2733C29.715 33.5069 28.8444 32.2152 28.154 30.8386C28.0189 31.0758 27.8818 31.3075 27.7447 31.5372C27.0269 32.7459 26.4071 33.79 26.4071 35.2167V40.833C26.4071 41.0263 26.5648 41.184 26.7581 41.184H27.4602C28.0415 41.184 28.5132 41.6557 28.5132 42.2371C28.5132 42.8184 28.0415 43.2901 27.4602 43.2901ZM16.4295 43.2901H15.7275C13.9741 43.2901 11.7494 40.2091 11.7494 36.7462C11.7494 36.1649 12.2207 35.6932 12.8024 35.6932C13.3842 35.6932 13.8555 36.1649 13.8555 36.7462C13.8555 39.1924 15.2623 40.9619 15.7916 41.184H16.4295C17.0112 41.184 17.4826 41.6557 17.4826 42.2371C17.4826 42.8184 17.0112 43.2901 16.4295 43.2901ZM7.80318 43.2901H7.23243C5.9857 43.2901 4.92991 42.3646 4.66459 41.0393L3.96255 37.5292C3.92416 37.3379 3.93993 37.1404 4.00746 36.9574C4.58677 35.3915 4.64368 33.1106 4.64436 33.088C4.64402 32.2187 4.43663 31.6921 4.14937 30.964C3.74419 29.9357 3.23995 28.6564 3.23995 26.0902C3.23995 25.7865 3.26051 25.4869 3.29994 25.1935C2.39394 24.6615 1.04094 23.5954 0.722492 21.8561C0.394442 20.0623 1.26822 18.1245 3.32016 16.0962C3.58377 15.8364 3.96461 15.7345 4.32214 15.825C4.6807 15.9173 4.96453 16.1905 5.07011 16.5449L5.53356 18.1036C5.69913 18.6613 5.3817 19.2475 4.82433 19.4134C4.3547 19.5508 3.86588 19.3503 3.62353 18.9506C2.94686 19.8977 2.66234 20.7557 2.79432 21.477C2.92629 22.1989 3.45659 22.7426 3.94712 23.1025C5.04474 20.9213 7.3051 19.4209 9.90928 19.4209H19.0357C20.3939 19.4209 20.8306 18.4793 21.6471 15.9879C22.2031 14.2917 22.8873 12.2045 24.4278 10.4734C24.4532 9.87009 24.5458 8.71625 24.8755 7.38691C24.6027 7.21723 24.2722 6.98276 23.937 6.67631L21.6979 7.36257C21.1446 7.53294 20.5529 7.22134 20.3822 6.66431C20.2122 6.1083 20.5248 5.51939 21.0808 5.34902L22.6158 4.87837C22.3368 4.25998 22.1551 3.52846 22.1551 2.67217C22.1551 2.09045 22.6268 1.61912 23.2082 1.61912C23.7896 1.61912 24.2612 2.09045 24.2612 2.67217C24.2612 3.98506 24.977 4.83141 25.5693 5.3072C26.5058 3.13562 28.204 0.991468 31.2809 0.239386C31.8506 0.0995274 32.4162 0.447803 32.554 1.01238C32.6925 1.5773 32.3463 2.14702 31.7814 2.28516C28.3549 3.1226 27.1613 6.47886 26.7458 8.74299C28.0943 7.93195 29.1597 7.55111 30.1339 7.20249C31.7389 6.62866 32.8989 6.21388 34.874 3.93741C35.2552 3.49795 35.9196 3.4503 36.3597 3.83217C36.7985 4.21336 36.8458 4.87837 36.4646 5.31748C35.1812 6.79663 34.122 7.63543 33.1478 8.1911C33.8045 8.6141 34.9234 8.99563 36.5174 8.40911C37.0604 8.20618 37.6678 8.48658 37.8694 9.03265C38.0709 9.57837 37.7912 10.1837 37.2455 10.385C34.2179 11.5007 31.9699 10.1755 31.0053 9.1276C28.8991 9.8111 27.579 10.6235 26.174 11.6855C24.8049 13.1163 24.1906 14.9893 23.6483 16.644C22.8613 19.0445 22.0475 21.527 19.0357 21.527H9.90928C7.3932 21.527 5.34605 23.5742 5.34605 26.0902C5.34605 28.256 5.73375 29.2398 6.10911 30.1914C6.42413 30.9915 6.75012 31.8183 6.75012 33.1106C6.74773 33.234 6.69219 35.5369 6.08374 37.3975L6.72956 40.6266C6.78509 40.9036 6.97568 41.184 7.23243 41.184H7.80318C8.38489 41.184 8.85623 41.6557 8.85623 42.2371C8.85623 42.8184 8.38489 43.2901 7.80318 43.2901ZM9.5041 35.9126C8.96861 35.6853 8.71363 35.072 8.93747 34.5352C9.26724 33.7441 9.84004 33.3053 10.345 32.9186C11.1163 32.3284 11.9139 31.7182 12.2183 29.3735C12.2934 28.7962 12.8182 28.389 13.3982 28.4651C13.9748 28.5398 14.3817 29.0684 14.3066 29.645C14.2596 30.0083 14.201 30.3436 14.1328 30.6535H19.0357C21.0068 30.6535 22.4033 31.6003 23.1849 33.4685C23.4091 34.0053 23.1568 34.6216 22.62 34.8465C22.0811 35.072 21.4668 34.8177 21.2419 34.2816C20.7895 33.2004 20.1505 32.7596 19.0357 32.7596H13.3485C12.8096 33.6844 12.1618 34.1801 11.6253 34.5908C11.2109 34.9082 10.9859 35.085 10.8811 35.3456C10.6558 35.9055 10.0015 36.1237 9.5041 35.9126Z" fill="black"/>
</svg>
