<svg width="40" height="30" viewBox="0 0 40 30" fill="none" xmlns="http://www.w3.org/2000/svg">
<path d="M39.8945 15.4276C36.5629 9.46387 31.0861 5.81713 24.6668 5.14135C21.4484 1.07648 11.3498 0.0467055 10.914 0.00428341C10.63 -0.0250136 10.3443 0.098659 10.1701 0.329832C9.99514 0.559365 9.95201 0.863663 10.0562 1.13304C11.0463 3.70306 12.0606 6.62628 12.3291 7.82222C10.4952 8.66137 8.89232 9.55371 7.85895 10.2973C5.61769 6.71167 1.04251 6.6669 0.833364 6.6669C0.372737 6.6669 0 7.03964 0 7.50027C0 12.3286 1.68298 14.7521 2.80845 15.8337C1.68298 16.9152 0 19.3387 0 24.167C0 24.6276 0.372737 25.0004 0.833364 25.0004C1.04251 25.0004 5.61777 24.9556 7.85895 21.37C9.23185 22.3579 11.6056 23.6072 14.1995 24.6458C13.6263 25.573 13.3334 27.0476 13.3334 29.167C13.3334 29.6277 13.7062 30.0004 14.1668 30.0004C14.4146 30.0004 20.0815 29.9513 22.9037 26.6408C30.0811 26.5021 36.2615 22.743 39.8945 16.2397C40.0352 15.9874 40.0352 15.6798 39.8945 15.4276ZM12.1021 1.82968C14.9022 2.235 19.4992 3.23219 22.097 5.01713C19.7017 5.11072 16.6454 6.01635 13.8748 7.15276C13.5059 5.68791 12.6874 3.39938 12.1021 1.82968ZM15.0196 28.2857C15.1306 25.9676 15.6655 25.3752 15.8154 25.254C17.4393 25.824 19.0846 26.2769 20.5786 26.5043C18.7709 27.7762 16.3066 28.1721 15.0196 28.2857ZM15.7187 25.2233L15.719 25.2211C15.7213 25.2219 15.7236 25.2225 15.7258 25.2233C15.7211 25.2227 15.7237 25.224 15.7187 25.2233ZM22.5001 25.0004C17.6303 25.0004 9.66803 21.0021 8.19341 19.4933C8.03552 19.3314 7.81989 19.2427 7.5977 19.2427C7.54723 19.2427 7.49598 19.2476 7.44551 19.2565C7.17285 19.307 6.94254 19.4909 6.8327 19.7456C5.708 22.3538 3.06314 23.0659 1.6886 23.2604C1.949 18.0382 4.42057 16.6426 4.54753 16.575C4.82175 16.4342 4.99104 16.1502 4.99511 15.8418C4.99917 15.5301 4.82417 15.2396 4.54831 15.0931C4.43682 15.0337 1.95064 13.6478 1.6886 8.41176C3.06228 8.61277 5.71691 9.33543 6.8327 11.9217C6.94254 12.1764 7.17285 12.3604 7.44551 12.4108C7.72059 12.462 7.99973 12.3725 8.19341 12.174C9.66803 10.6651 17.6303 6.6669 22.5001 6.6669C29.0798 6.6669 34.7789 10.0011 38.2066 15.8336C34.7789 21.6662 29.0798 25.0004 22.5001 25.0004Z" fill="white"/>
<path d="M25.0006 15.833C25.0006 11.9984 26.5135 9.64973 26.529 9.62614C26.7813 9.24199 26.6755 8.72605 26.293 8.47215C25.9105 8.21988 25.3945 8.32324 25.1406 8.7041C25.0666 8.8148 23.334 11.4645 23.334 15.833C23.334 20.2016 25.0666 22.8513 25.1406 22.962C25.3009 23.2029 25.5655 23.3331 25.8348 23.3331C25.9935 23.3331 26.1538 23.2875 26.2962 23.1931C26.6795 22.9375 26.7828 22.4208 26.5273 22.0375C26.5119 22.0148 25.0006 19.7028 25.0006 15.833Z" fill="white"/>
<path d="M22.959 8.47254C22.5757 8.22028 22.0613 8.32364 21.8067 8.7045C21.7326 8.81512 20 11.4649 20 15.8334C20 18.1666 20.5029 20 20.9253 21.1272C21.0506 21.4616 21.3681 21.6683 21.7058 21.6683C21.8027 21.6683 21.9019 21.6512 21.998 21.6154C22.4293 21.4543 22.6474 20.9742 22.4863 20.5429C22.1127 19.5443 21.6667 17.9167 21.6667 15.8334C21.6667 11.9987 23.1796 9.65005 23.1951 9.62646C23.4473 9.24239 23.3415 8.72645 22.959 8.47254Z" fill="white"/>
<path d="M30.0006 14.9996C30.9211 14.9996 31.6673 14.2534 31.6673 13.3329C31.6673 12.4124 30.9211 11.6663 30.0006 11.6663C29.0802 11.6663 28.334 12.4124 28.334 13.3329C28.334 14.2534 29.0802 14.9996 30.0006 14.9996Z" fill="white"/>
</svg>
