<svg width="21" height="18" viewBox="0 0 21 18" fill="none" xmlns="http://www.w3.org/2000/svg">
<path fill-rule="evenodd" clip-rule="evenodd" d="M2.92554 3.12438C3.75727 2.29034 4.88519 1.82179 6.06126 1.82179C7.23734 1.82179 8.36526 2.29034 9.19699 3.12438L10.4965 4.42681L11.7961 3.12438C12.2052 2.69946 12.6946 2.36053 13.2357 2.12737C13.7768 1.8942 14.3588 1.77148 14.9477 1.76634C15.5367 1.76121 16.1207 1.87377 16.6658 2.09747C17.2108 2.32117 17.706 2.65151 18.1225 3.06924C18.5389 3.48696 18.8683 3.98369 19.0913 4.53045C19.3143 5.07721 19.4265 5.66304 19.4214 6.25377C19.4163 6.8445 19.2939 7.42829 19.0615 7.97108C18.829 8.51386 18.4911 9.00478 18.0675 9.41518L10.4965 17.0106L2.92554 9.41518C2.09405 8.58088 1.62695 7.44948 1.62695 6.26978C1.62695 5.09008 2.09405 3.95868 2.92554 3.12438V3.12438Z" stroke="black" stroke-width="1.8538" stroke-linejoin="round"/>
</svg>
