<svg width="57" height="57" viewBox="0 0 57 57" fill="none" xmlns="http://www.w3.org/2000/svg">
<path d="M16.0195 52.1353C15.5134 52.131 15.0142 52.0169 14.5564 51.8008C14.0986 51.5848 13.6931 51.272 13.368 50.8841C13.0429 50.4961 12.8058 50.0422 12.6731 49.5538C12.5404 49.0653 12.5153 48.5538 12.5995 48.0547C12.6316 47.8625 12.6741 47.6722 12.7267 47.4847C12.8413 47.0769 13.0301 46.6937 13.2835 46.3543L19.0975 38.5892C19.3555 38.2448 19.5152 37.8368 19.5598 37.4088L19.6396 30.9187C19.6425 30.6788 19.7398 30.4496 19.9105 30.2809C20.0813 30.1122 20.3116 30.0176 20.5516 30.0176H20.563C20.8048 30.0206 21.0355 30.1195 21.2044 30.2925C21.3733 30.4656 21.4665 30.6986 21.4636 30.9404L21.3838 37.4698C21.3838 37.4931 21.3838 37.5171 21.3804 37.541C21.3097 38.3168 21.0251 39.0577 20.5585 39.6814L14.7439 47.4465C14.6236 47.6062 14.5336 47.7867 14.4783 47.9788C14.444 48.1028 14.4161 48.2283 14.3945 48.3551C14.3432 48.6484 14.3717 48.9501 14.4771 49.2286C14.5825 49.5071 14.7609 49.7521 14.9935 49.9379C15.2188 50.1234 15.4898 50.2448 15.778 50.2897C16.0663 50.3345 16.3614 50.301 16.6323 50.1927L16.6631 50.1796L16.6853 50.1711C16.9553 50.0579 17.19 49.8742 17.3647 49.6393L24.3102 40.3813L25.0461 37.0702C25.072 36.9533 25.1208 36.8426 25.1895 36.7445C25.2583 36.6464 25.3457 36.5629 25.4467 36.4986C25.5477 36.4342 25.6605 36.3905 25.7784 36.3697C25.8964 36.349 26.0173 36.3517 26.1342 36.3776C26.2511 36.4036 26.3618 36.4524 26.4599 36.5211C26.5579 36.5898 26.6415 36.6772 26.7058 36.7783C26.7701 36.8793 26.8139 36.992 26.8347 37.11C26.8554 37.228 26.8527 37.3488 26.8267 37.4658L26.0481 40.969C26.0202 41.0956 25.9654 41.2148 25.8874 41.3184L18.8194 50.7348C18.4469 51.2321 17.9477 51.6201 17.3739 51.8583L17.3562 51.8657L17.2958 51.8902C16.8894 52.051 16.4565 52.1341 16.0195 52.1353Z" fill="white"/>
<path d="M21.1234 31.1535C20.9771 31.1531 20.8331 31.1175 20.7034 31.0498C20.5738 30.982 20.4623 30.8841 20.3785 30.7642C20.2946 30.6443 20.2409 30.506 20.2217 30.361C20.2026 30.2159 20.2186 30.0684 20.2684 29.9309L24.7651 17.5151C25.0175 16.8049 25.4401 16.1673 25.996 15.6582C26.5518 15.1491 27.224 14.7841 27.9537 14.595C29.1 14.3037 30.2337 14.4725 31.3207 15.0978C32.0729 15.5367 32.7131 16.1441 33.1909 16.8722L37.027 22.656C37.096 22.7611 37.19 22.8473 37.3007 22.907C37.4113 22.9667 37.5351 22.998 37.6608 22.998H42.1022C43.0969 22.998 44.0334 23.5081 44.5464 24.3295C45.105 25.2244 45.0275 26.2378 44.3344 27.1105C44.0632 27.4507 43.7183 27.725 43.3257 27.9126C42.9332 28.1002 42.5031 28.1962 42.068 28.1935H34.7669C33.2405 28.1935 31.8212 27.4628 30.9707 26.239C30.9177 26.1632 30.8647 26.0817 30.814 25.9973C30.632 25.6956 30.4511 25.3942 30.2713 25.0933C30.0737 24.7627 29.8752 24.4321 29.6757 24.1015C29.3189 23.5092 29.0413 23.0578 28.7757 22.6377L28.172 21.6813C28.0999 21.5803 28.049 21.4657 28.0227 21.3444C27.9964 21.2231 27.9951 21.0977 28.0189 20.9759C28.0427 20.8541 28.0911 20.7384 28.1612 20.636C28.2313 20.5336 28.3215 20.4465 28.4264 20.3802C28.5313 20.3138 28.6486 20.2696 28.7712 20.2501C28.8938 20.2307 29.019 20.2365 29.1393 20.2672C29.2595 20.2978 29.3723 20.3527 29.4706 20.4285C29.5689 20.5042 29.6507 20.5992 29.711 20.7077L30.3181 21.6602C30.59 22.0911 30.8738 22.5522 31.2375 23.1547C31.4381 23.4864 31.6365 23.8199 31.8366 24.1522C32.0155 24.452 32.1951 24.7517 32.3752 25.0511C32.4054 25.1007 32.4368 25.1486 32.4675 25.193C32.7279 25.5594 33.0729 25.8574 33.4733 26.0615C33.8737 26.2657 34.3175 26.37 34.7669 26.3655H42.0675C42.2278 26.3663 42.3864 26.3313 42.5314 26.263C42.6765 26.1946 42.8045 26.0947 42.9059 25.9705C43.1738 25.6336 43.106 25.4626 42.9983 25.2899C42.9007 25.1421 42.7673 25.0212 42.6106 24.9385C42.4539 24.8558 42.2788 24.814 42.1017 24.8168H37.6608C37.2341 24.8175 36.8138 24.7122 36.4378 24.5105C36.0617 24.3087 35.7417 24.0168 35.5062 23.6609L31.6707 17.8794C31.3488 17.3871 30.9173 16.9762 30.4098 16.6789C29.7384 16.293 29.0806 16.1899 28.4006 16.3626C27.9596 16.4788 27.5537 16.7012 27.2185 17.0104C26.8832 17.3196 26.6288 17.7062 26.4774 18.1364L21.9807 30.5522C21.9169 30.7283 21.8003 30.8805 21.647 30.9881C21.4936 31.0957 21.3108 31.1535 21.1234 31.1535Z" fill="white"/>
<path d="M32.5476 51.9361C32.1916 51.9354 31.8381 51.8757 31.5017 51.7594C29.8025 51.1757 28.8432 50.1035 28.8705 48.8187L28.9047 47.27V43.052C28.9042 42.4858 28.7021 41.9382 28.3347 41.5073L19.848 31.5169C19.7704 31.4256 19.7116 31.32 19.6748 31.2059C19.6381 31.0919 19.6242 30.9718 19.6338 30.8524C19.6435 30.733 19.6766 30.6166 19.7313 30.51C19.7859 30.4034 19.861 30.3086 19.9523 30.231C20.0436 30.1534 20.1493 30.0946 20.2633 30.0578C20.3773 30.0211 20.4975 30.0072 20.6169 30.0168C20.7363 30.0265 20.8526 30.0596 20.9592 30.1143C21.0659 30.1689 21.1607 30.244 21.2382 30.3353L29.7272 40.3257C30.3735 41.0869 30.7284 42.0529 30.7287 43.0515V47.3002L30.694 48.858C30.6803 49.4982 31.7627 49.9205 32.0945 50.0345C32.3917 50.1433 32.7186 50.138 33.0122 50.0197C33.7805 49.6925 33.8882 48.6802 33.8985 48.5565V39.6144C33.8991 39.0176 33.6753 38.4424 33.2715 38.003L29.0102 33.35C28.3827 32.6666 27.9509 31.8267 27.7603 30.9186C27.5697 30.0105 27.6274 29.0679 27.9272 28.1898L29.595 23.3089C29.6732 23.08 29.8392 22.8916 30.0563 22.7851C30.2735 22.6786 30.5241 22.6627 30.753 22.7409C30.9818 22.8191 31.1703 22.9851 31.2768 23.2023C31.3833 23.4194 31.3992 23.67 31.321 23.8989L29.6531 28.7798C29.4588 29.3476 29.4211 29.9573 29.5441 30.5447C29.6671 31.1321 29.9462 31.6755 30.352 32.1177L34.6139 36.7683C35.3277 37.5441 35.7235 38.5601 35.7225 39.6144V48.585V48.6255C35.6855 49.4668 35.2232 51.0611 33.7275 51.6978C33.3544 51.8563 32.953 51.9374 32.5476 51.9361Z" fill="white"/>
<path d="M19.8066 32.1659C19.6001 32.1659 19.3952 32.1314 19.2001 32.0638C19.0034 31.9954 18.8079 31.9259 18.6119 31.8564C18.2055 31.7116 17.7854 31.5628 17.3744 31.4289L14.7701 30.5824C14.6235 30.5337 14.4743 30.4936 14.3232 30.4621C13.3126 30.2535 12.6308 29.8426 12.2985 29.2412C12.1784 29.0215 12.1073 28.7783 12.09 28.5285C12.0728 28.2787 12.1099 28.0281 12.1988 27.794L12.2056 27.7757C12.2347 27.6982 12.2626 27.6252 12.2843 27.5568L16.6892 14.1818C16.8118 13.809 16.9104 13.426 17.0147 13.0201L17.0432 12.9107C17.1586 12.4694 17.4177 12.0791 17.7797 11.8015C18.0654 11.5823 18.3978 11.4318 18.7511 11.3616C19.1043 11.2914 19.469 11.3035 19.8168 11.3968L24.1597 12.5442C25.2997 12.7819 26.1199 13.3222 26.5987 14.151C27.3614 15.4711 26.9014 16.956 26.8461 17.1207L25.1156 16.5439V16.5501C25.1914 16.3102 25.3219 15.5749 25.017 15.0562C24.8055 14.6971 24.386 14.4514 23.7704 14.326C23.7533 14.3226 23.7362 14.3186 23.7196 14.314L19.3529 13.1604C19.2771 13.138 19.1972 13.1335 19.1194 13.1472C19.0415 13.1608 18.9679 13.1922 18.9043 13.239C18.8587 13.2686 18.8254 13.3138 18.8108 13.3661L18.7829 13.475C18.6757 13.8917 18.5651 14.322 18.4232 14.7518L14.0148 28.1274C13.9852 28.2186 13.9538 28.303 13.9236 28.3851C13.992 28.4421 14.1932 28.5726 14.692 28.6758C14.9089 28.7209 15.1232 28.7779 15.3338 28.8468L17.9381 29.6966C18.373 29.838 18.8051 29.9913 19.2229 30.1395C19.4152 30.2079 19.6076 30.2759 19.8003 30.3436C19.8391 30.3436 20.054 30.241 20.3458 29.7656C20.4305 29.6278 20.5503 29.515 20.6929 29.4388C20.8355 29.3626 20.9959 29.3257 21.1575 29.3318C21.2145 29.3318 26.8575 29.4834 28.8445 25.5522C28.8985 25.4452 28.973 25.35 29.0638 25.2718C29.1545 25.1937 29.2598 25.1342 29.3736 25.0968C29.4874 25.0593 29.6074 25.0447 29.7268 25.0536C29.8463 25.0625 29.9628 25.0949 30.0697 25.1489C30.1766 25.2029 30.2719 25.2774 30.35 25.3681C30.4282 25.4589 30.4877 25.5642 30.5251 25.678C30.5626 25.7917 30.5772 25.9118 30.5683 26.0312C30.5593 26.1507 30.527 26.2672 30.473 26.3741C29.4202 28.458 27.452 29.9463 24.773 30.677C23.7382 30.9556 22.6748 31.1143 21.6038 31.1501C20.9637 31.9652 20.3025 32.1659 19.8066 32.1659Z" fill="white"/>
<path d="M33.2213 14.2902C32.2818 14.2898 31.3635 14.0108 30.5825 13.4884C29.8015 12.9661 29.1929 12.224 28.8336 11.3558C28.4744 10.4876 28.3807 9.53246 28.5642 8.61102C28.7478 7.68958 29.2005 6.84325 29.865 6.17905C30.5295 5.51484 31.376 5.06259 32.2976 4.87945C33.2191 4.69632 34.1743 4.79054 35.0422 5.15019C35.9102 5.50985 36.6521 6.11879 37.174 6.90003C37.696 7.68127 37.9746 8.59973 37.9746 9.53928C37.9729 10.7992 37.4715 12.007 36.5804 12.8977C35.6893 13.7884 34.4812 14.2892 33.2213 14.2902ZM33.2213 6.61233C32.6425 6.61278 32.0769 6.78483 31.5958 7.10672C31.1148 7.42861 30.74 7.8859 30.5188 8.42076C30.2976 8.95563 30.24 9.54407 30.3532 10.1117C30.4664 10.6793 30.7453 11.2006 31.1547 11.6098C31.5642 12.0189 32.0857 12.2974 32.6534 12.4102C33.2211 12.5229 33.8095 12.4648 34.3442 12.2432C34.8789 12.0216 35.3359 11.6465 35.6574 11.1652C35.979 10.6839 36.1506 10.1181 36.1506 9.53928C36.1495 8.76293 35.8405 8.01872 35.2913 7.46998C34.7421 6.92123 33.9977 6.61278 33.2213 6.61233Z" fill="white"/>
<path d="M42.0585 52.2119C41.8166 52.2119 41.5846 52.1158 41.4136 51.9447C41.2426 51.7737 41.1465 51.5417 41.1465 51.2999V27.2795C41.1465 27.0376 41.2426 26.8056 41.4136 26.6346C41.5846 26.4636 41.8166 26.3675 42.0585 26.3675C42.3004 26.3675 42.5323 26.4636 42.7034 26.6346C42.8744 26.8056 42.9705 27.0376 42.9705 27.2795V51.2999C42.9705 51.5417 42.8744 51.7737 42.7034 51.9447C42.5323 52.1158 42.3004 52.2119 42.0585 52.2119Z" fill="white"/>
<path d="M42.0585 24.8188C41.8166 24.8188 41.5846 24.7227 41.4136 24.5517C41.2426 24.3806 41.1465 24.1487 41.1465 23.9068V18.9164C41.1465 18.6746 41.2426 18.4426 41.4136 18.2716C41.5846 18.1005 41.8166 18.0044 42.0585 18.0044C42.3004 18.0044 42.5323 18.1005 42.7034 18.2716C42.8744 18.4426 42.9705 18.6746 42.9705 18.9164V23.9068C42.9705 24.1487 42.8744 24.3806 42.7034 24.5517C42.5323 24.7227 42.3004 24.8188 42.0585 24.8188Z" fill="white"/>
<path d="M25.0425 20.3233C24.9573 20.3232 24.8725 20.3113 24.7906 20.2879L16.4583 17.8979C16.3426 17.8654 16.2345 17.8104 16.1401 17.7359C16.0458 17.6615 15.9671 17.5692 15.9085 17.4642C15.85 17.3593 15.8127 17.2438 15.799 17.1244C15.7852 17.005 15.7952 16.884 15.8283 16.7685C15.8614 16.653 15.9171 16.5452 15.992 16.4512C16.0669 16.3572 16.1597 16.279 16.265 16.2211C16.3702 16.1631 16.4859 16.1265 16.6054 16.1133C16.7249 16.1002 16.8457 16.1108 16.9611 16.1446L25.2933 18.5346C25.5047 18.5952 25.687 18.7301 25.8067 18.9144C25.9265 19.0988 25.9756 19.3202 25.9451 19.5379C25.9146 19.7556 25.8064 19.955 25.6406 20.0993C25.4748 20.2436 25.2624 20.3231 25.0425 20.3233Z" fill="white"/>
</svg>
