<svg width="38" height="29" viewBox="0 0 38 29" fill="none" xmlns="http://www.w3.org/2000/svg">
<path d="M36.9931 19.1791L36.0875 17.6767L37.3582 13.97C38.063 11.9014 38.0357 9.65344 37.2809 7.60254C37.1182 7.16071 36.9234 6.73133 36.6982 6.31781C36.8844 6.31223 37.0608 6.23291 37.1885 6.0973C37.3162 5.96169 37.3848 5.78091 37.3792 5.59472C37.3736 5.40853 37.2943 5.23218 37.1587 5.10447C37.0231 4.97677 36.8423 4.90816 36.6561 4.91374H35.7224C34.7895 3.81112 33.627 2.92566 32.3161 2.31933C31.0053 1.71301 29.5777 1.40047 28.1334 1.40357H17.1747C16.4987 1.01085 15.7309 0.803986 14.9492 0.803986C14.1675 0.803986 13.3997 1.01085 12.7238 1.40357H7.80951C7.45149 1.40976 7.09555 1.45926 6.74943 1.551C6.22333 1.20265 5.62976 0.969017 5.00737 0.865314C4.38497 0.761611 3.74771 0.790164 3.13709 0.949112C2.52646 1.10806 1.95616 1.39384 1.46332 1.78784C0.970484 2.18184 0.566157 2.67523 0.276672 3.23588C0.215056 3.3426 0.182617 3.46367 0.182617 3.5869C0.182617 3.71013 0.215056 3.83119 0.276672 3.93792C0.614895 4.4741 1.06113 4.93393 1.58692 5.28808C2.11272 5.64224 2.70654 5.88295 3.33052 5.99488L2.84612 8.40988L1.39291 9.50505C1.06535 9.75068 0.798729 10.0684 0.613685 10.4336C0.428641 10.7988 0.330141 11.2018 0.325815 11.6112V13.1135C0.327417 13.6095 0.467623 14.0952 0.730607 14.5157C0.993592 14.9362 1.36888 15.2749 1.81413 15.4934L5.66128 17.3678L6.86878 26.2135C6.95294 26.7966 7.24381 27.33 7.68839 27.7166C8.13297 28.1032 8.70165 28.3172 9.2908 28.3196H12.8291C13.3677 28.3197 13.8913 28.1423 14.319 27.8149C14.7466 27.4875 15.0545 27.0283 15.1949 26.5083L16.3182 22.2961L18.7051 18.4911H20.1723L20.3689 19.3616C20.787 21.2326 21.9243 22.8641 23.5351 23.9038L23.9774 24.1916L23.2753 25.6448C23.1354 25.9291 23.0705 26.2444 23.0866 26.5609C23.1027 26.8773 23.1994 27.1844 23.3674 27.453C23.5355 27.7216 23.7694 27.9428 24.0469 28.0957C24.3244 28.2486 24.6364 28.3281 24.9532 28.3266H26.9189C27.3843 28.3251 27.8398 28.1926 28.2334 27.9443C28.6269 27.696 28.9426 27.3419 29.1443 26.9225L30.4712 24.1144L30.8784 24.1776L31.2224 24.2197V26.2135C31.2223 26.766 31.4394 27.2965 31.8268 27.6904C32.2142 28.0844 32.7409 28.3104 33.2934 28.3196H35.7856C36.3442 28.3196 36.8799 28.0977 37.2748 27.7027C37.6698 27.3077 37.8917 26.772 37.8917 26.2135V22.3453C37.8864 21.2277 37.5757 20.1328 36.9931 19.1791ZM4.15892 2.22495C4.48659 2.21406 4.81383 2.25675 5.12773 2.35132C4.39952 2.93365 3.87575 3.73283 3.6324 4.63293C2.88357 4.51692 2.20243 4.13268 1.71584 3.5518C1.99222 3.15627 2.35684 2.83047 2.78087 2.60019C3.20489 2.3699 3.67668 2.24143 4.15892 2.22495ZM36.4525 26.2205C36.4525 26.4067 36.3786 26.5853 36.2469 26.7169C36.1152 26.8486 35.9367 26.9225 35.7505 26.9225H33.3004C33.1203 26.9135 32.9507 26.8356 32.8265 26.7049C32.7024 26.5742 32.6332 26.4008 32.6335 26.2205V23.6019C32.6347 23.4294 32.5724 23.2625 32.4585 23.1331C32.3445 23.0036 32.1869 22.9206 32.0157 22.8999L31.082 22.7946C29.8451 22.6565 28.7025 22.0676 27.8724 21.1403C27.0423 20.2131 26.5829 19.0125 26.5819 17.768V14.4684C26.5819 14.2822 26.508 14.1037 26.3763 13.972C26.2446 13.8404 26.0661 13.7664 25.8799 13.7664C25.6937 13.7664 25.5151 13.8404 25.3835 13.972C25.2518 14.1037 25.1778 14.2822 25.1778 14.4684V17.754C25.1761 19.0291 25.5519 20.2762 26.2577 21.3381C26.9636 22.4 27.968 23.2292 29.1443 23.7213L27.9228 26.2837C27.8349 26.4641 27.6982 26.6163 27.5282 26.723C27.3582 26.8298 27.1617 26.8867 26.961 26.8874H24.9953C24.9167 26.8875 24.8394 26.8675 24.7706 26.8295C24.7018 26.7914 24.6439 26.7364 24.6022 26.6698C24.564 26.6023 24.544 26.5262 24.544 26.4487C24.544 26.3712 24.564 26.295 24.6022 26.2275L25.585 24.2127C25.6495 24.0539 25.6537 23.877 25.5968 23.7154C25.5399 23.5538 25.4258 23.4185 25.2761 23.3351L24.3143 22.7103C23.0107 21.8723 22.0919 20.5522 21.7589 19.0387L21.6256 18.4771H22.6014C22.7876 18.4771 22.9661 18.4031 23.0978 18.2714C23.2294 18.1398 23.3034 17.9612 23.3034 17.775C23.3034 17.5888 23.2294 17.4103 23.0978 17.2786C22.9661 17.1469 22.7876 17.073 22.6014 17.073H19.0912V14.4684C19.0912 14.2822 19.0172 14.1037 18.8856 13.972C18.7539 13.8404 18.5754 13.7664 18.3892 13.7664C18.203 13.7664 18.0244 13.8404 17.8928 13.972C17.7611 14.1037 17.6871 14.2822 17.6871 14.4684V17.5012L15.1036 21.6151C15.0685 21.675 15.0402 21.7385 15.0194 21.8047L13.847 26.1433C13.7837 26.3631 13.6496 26.5558 13.4655 26.6917C13.2815 26.8275 13.0578 26.8988 12.8291 26.8944H11.783V19.4178C11.7826 19.2855 11.7449 19.1559 11.6741 19.0441C11.6033 18.9324 11.5023 18.8428 11.3829 18.7859L9.38908 17.8452C9.21965 17.7661 9.02572 17.7575 8.84996 17.8214C8.6742 17.8852 8.531 18.0163 8.45187 18.1857C8.37274 18.3551 8.36415 18.5491 8.42801 18.7248C8.49186 18.9006 8.62292 19.0438 8.79235 19.1229L10.379 19.8741V26.8944H9.31888C9.0697 26.8941 8.82883 26.8048 8.63964 26.6426C8.45044 26.4805 8.32535 26.2561 8.28689 26.0099L7.00217 16.8203C6.98635 16.7065 6.94287 16.5984 6.87556 16.5054C6.80824 16.4124 6.71913 16.3373 6.61605 16.2867L2.40384 14.2508C2.19282 14.1507 2.01471 13.9926 1.89037 13.7949C1.76603 13.5972 1.70062 13.3681 1.7018 13.1346V11.6322C1.70261 11.4389 1.74801 11.2484 1.83446 11.0755C1.92091 10.9026 2.04609 10.752 2.20025 10.6353L3.87109 9.40677C4.01264 9.30323 4.11031 9.15046 4.14488 8.97852L4.9101 5.15946C5.04406 4.50152 5.40063 3.90984 5.91978 3.48404C6.43893 3.05824 7.08894 2.82432 7.76036 2.82168H11.1652C11.074 2.96209 10.9827 3.10249 10.9055 3.24992C10.8544 3.33151 10.8207 3.42273 10.8064 3.5179C10.7921 3.61308 10.7975 3.71018 10.8223 3.80318C10.847 3.89618 10.8907 3.98309 10.9505 4.0585C11.0103 4.13392 11.085 4.19624 11.1699 4.24158C11.2548 4.28692 11.3481 4.31432 11.444 4.32208C11.5399 4.32984 11.6364 4.31779 11.7275 4.28668C11.8186 4.25557 11.9023 4.20606 11.9735 4.14123C12.0446 4.0764 12.1016 3.99764 12.1411 3.90983C12.3805 3.45056 12.7299 3.05771 13.1581 2.76631C13.5864 2.47491 14.08 2.29403 14.5951 2.23981C15.1102 2.18559 15.6307 2.25971 16.1102 2.45556C16.5897 2.65141 17.0133 2.9629 17.3431 3.36225C17.0695 3.75242 16.7103 4.07483 16.293 4.3048C15.8756 4.53478 15.4111 4.66623 14.9352 4.68909C14.749 4.68909 14.5704 4.76306 14.4387 4.89471C14.3071 5.02637 14.2331 5.20494 14.2331 5.39113C14.2331 5.57732 14.3071 5.75588 14.4387 5.88754C14.5704 6.0192 14.749 6.09316 14.9352 6.09316C15.7393 6.06728 16.5224 5.83056 17.2063 5.40671C17.8901 4.98287 18.4505 4.38678 18.8315 3.67816C18.8931 3.57144 18.9255 3.45038 18.9255 3.32715C18.9255 3.20391 18.8931 3.08285 18.8315 2.97613C18.8011 2.92771 18.7683 2.88085 18.7332 2.83572H28.1334C30.2107 2.82677 32.22 3.57558 33.7848 4.94182C33.0128 4.98493 32.2804 5.29719 31.7147 5.82433C31.1491 6.35147 30.7861 7.06016 30.6888 7.82719C30.1001 8.20802 29.6219 8.73684 29.3019 9.36068C28.9819 9.98452 28.8314 10.6815 28.8655 11.3818C28.8997 12.0821 29.1172 12.7611 29.4963 13.3509C29.8755 13.9406 30.4029 14.4204 31.0258 14.7422C31.1243 14.7978 31.2356 14.8268 31.3487 14.8265C31.4642 14.8277 31.578 14.7987 31.6787 14.7422C32.2904 14.4218 32.8089 13.9488 33.184 13.369C33.5592 12.7893 33.7782 12.1225 33.8199 11.4332C33.8615 10.7439 33.7244 10.0556 33.4219 9.43489C33.1193 8.81418 32.6615 8.28215 32.0929 7.89037C32.1762 7.45414 32.4089 7.06058 32.751 6.77741C33.0931 6.49423 33.5232 6.33916 33.9673 6.33888H35.0274C35.429 6.87687 35.755 7.4674 35.9962 8.09396C36.6179 9.84464 36.6179 11.756 35.9962 13.5066L34.5921 17.5223C34.559 17.6192 34.5475 17.7223 34.5584 17.8241C34.5693 17.926 34.6024 18.0243 34.6553 18.112L35.7294 19.8952C36.1843 20.6266 36.4274 21.4699 36.4315 22.3312L36.4525 26.2205ZM31.3487 9.06979C31.6822 9.3105 31.9537 9.62695 32.141 9.9931C32.3283 10.3593 32.4259 10.7646 32.4259 11.1759C32.4259 11.5872 32.3283 11.9925 32.141 12.3587C31.9537 12.7248 31.6822 13.0413 31.3487 13.282C31.0166 13.0404 30.7463 12.7236 30.56 12.3576C30.3736 11.9915 30.2765 11.5866 30.2765 11.1759C30.2765 10.7652 30.3736 10.3603 30.56 9.99423C30.7463 9.6282 31.0166 9.31143 31.3487 9.06979ZM10.723 7.94653C10.7243 8.15094 10.665 8.35115 10.5525 8.52178C10.4399 8.69241 10.2792 8.82577 10.0908 8.90496C9.90233 8.98415 9.69461 9.00559 9.49397 8.96656C9.29332 8.92754 9.10878 8.82981 8.96375 8.68577C8.81872 8.54173 8.71973 8.35786 8.67934 8.15748C8.63895 7.95711 8.65897 7.74925 8.73687 7.56027C8.81477 7.37129 8.94703 7.2097 9.11689 7.09599C9.28675 6.98228 9.48655 6.92157 9.69096 6.92156C9.96345 6.92156 10.2249 7.02932 10.4182 7.22134C10.6116 7.41336 10.7211 7.67405 10.723 7.94653ZM4.875 12.2079C4.87639 12.4126 4.81687 12.6131 4.70401 12.7839C4.59115 12.9546 4.43004 13.088 4.24119 13.167C4.05233 13.246 3.84426 13.267 3.64342 13.2274C3.44258 13.1878 3.25805 13.0894 3.1133 12.9446C2.96856 12.7999 2.87013 12.6153 2.83053 12.4145C2.79094 12.2137 2.81196 12.0056 2.89094 11.8167C2.96992 11.6279 3.10328 11.4668 3.27406 11.3539C3.44484 11.241 3.64533 11.1815 3.85003 11.1829C3.98697 11.1792 4.12328 11.2029 4.2509 11.2527C4.37851 11.3026 4.49484 11.3775 4.59301 11.473C4.69119 11.5686 4.76921 11.6828 4.82246 11.809C4.87572 11.9353 4.90313 12.0709 4.90308 12.2079H4.875Z" fill="black"/>
</svg>
