<svg width="46" height="46" viewBox="0 0 46 46" fill="none" xmlns="http://www.w3.org/2000/svg">
<path d="M12.131 21.387C17.2346 21.387 21.387 17.2346 21.387 12.1317C21.387 7.02747 17.2346 2.875 12.131 2.875C7.02747 2.875 2.875 7.02747 2.875 12.1317C2.875 17.2346 7.02747 21.387 12.131 21.387ZM12.131 5.75C15.6497 5.75 18.512 8.61237 18.512 12.1317C18.512 15.6497 15.6497 18.512 12.131 18.512C8.61237 18.512 5.75 15.6497 5.75 12.1317C5.75 8.61237 8.61237 5.75 12.131 5.75Z" fill="white"/>
<path d="M12.131 43.125C17.2346 43.125 21.387 38.9725 21.387 33.8683C21.387 28.7654 17.2346 24.613 12.131 24.613C7.02747 24.613 2.875 28.7654 2.875 33.8683C2.875 38.9725 7.02747 43.125 12.131 43.125ZM12.131 27.488C15.6497 27.488 18.512 30.3503 18.512 33.8683C18.512 37.3876 15.6497 40.25 12.131 40.25C8.61237 40.25 5.75 37.3876 5.75 33.8683C5.75 30.3503 8.61237 27.488 12.131 27.488Z" fill="white"/>
<path d="M33.8693 24.6131C28.7657 24.6131 24.6133 28.7656 24.6133 33.8684C24.6133 38.9727 28.7657 43.1252 33.8693 43.1252C38.9728 43.1252 43.1253 38.9727 43.1253 33.8684C43.1253 28.7656 38.9728 24.6131 33.8693 24.6131ZM33.8693 40.2502C30.3506 40.2502 27.4883 37.3878 27.4883 33.8684C27.4883 30.3505 30.3506 27.4881 33.8693 27.4881C37.3879 27.4881 40.2503 30.3505 40.2503 33.8684C40.2503 37.3878 37.3879 40.2502 33.8693 40.2502Z" fill="white"/>
<path d="M41.6878 10.6942H35.3068V4.3125C35.3068 3.51794 34.6631 2.875 33.8693 2.875C33.0754 2.875 32.4318 3.51794 32.4318 4.3125V10.6942H26.0508C25.2569 10.6942 24.6133 11.3372 24.6133 12.1317C24.6133 12.9263 25.2569 13.5692 26.0508 13.5692H32.4318V19.9495C32.4318 20.7441 33.0754 21.387 33.8693 21.387C34.6631 21.387 35.3068 20.7441 35.3068 19.9495V13.5692H41.6878C42.4817 13.5692 43.1253 12.9263 43.1253 12.1317C43.1253 11.3372 42.4817 10.6942 41.6878 10.6942Z" fill="white"/>
</svg>
