<svg width="37" height="36" viewBox="0 0 37 36" fill="none" xmlns="http://www.w3.org/2000/svg">
<path d="M10.1418 16.9741C14.043 16.9741 17.2172 13.7999 17.2172 9.89924C17.2172 5.99751 14.043 2.82333 10.1418 2.82333C6.24059 2.82333 3.06641 5.99751 3.06641 9.89924C3.06641 13.7999 6.24059 16.9741 10.1418 16.9741ZM10.1418 5.021C12.8315 5.021 15.0195 7.20902 15.0195 9.89924C15.0195 12.5884 12.8315 14.7764 10.1418 14.7764C7.4521 14.7764 5.26408 12.5884 5.26408 9.89924C5.26408 7.20902 7.4521 5.021 10.1418 5.021Z" fill="black"/>
<path d="M10.1418 33.591C14.043 33.591 17.2172 30.4169 17.2172 26.5151C17.2172 22.6145 14.043 19.4403 10.1418 19.4403C6.24059 19.4403 3.06641 22.6145 3.06641 26.5151C3.06641 30.4169 6.24059 33.591 10.1418 33.591ZM10.1418 21.638C12.8315 21.638 15.0195 23.826 15.0195 26.5151C15.0195 29.2053 12.8315 31.3934 10.1418 31.3934C7.4521 31.3934 5.26408 29.2053 5.26408 26.5151C5.26408 23.826 7.4521 21.638 10.1418 21.638Z" fill="black"/>
<path d="M26.7599 19.4402C22.8588 19.4402 19.6846 22.6144 19.6846 26.5151C19.6846 30.4168 22.8588 33.591 26.7599 33.591C30.6611 33.591 33.8353 30.4168 33.8353 26.5151C33.8353 22.6144 30.6611 19.4402 26.7599 19.4402ZM26.7599 31.3933C24.0703 31.3933 21.8822 29.2053 21.8822 26.5151C21.8822 23.8259 24.0703 21.6379 26.7599 21.6379C29.4496 21.6379 31.6376 23.8259 31.6376 26.5151C31.6376 29.2053 29.4496 31.3933 26.7599 31.3933Z" fill="black"/>
<path d="M32.7365 8.80015H27.8588V3.92191C27.8588 3.31455 27.3668 2.82307 26.7599 2.82307C26.1531 2.82307 25.6611 3.31455 25.6611 3.92191V8.80015H20.7834C20.1766 8.80015 19.6846 9.29162 19.6846 9.89899C19.6846 10.5064 20.1766 10.9978 20.7834 10.9978H25.6611V15.875C25.6611 16.4824 26.1531 16.9738 26.7599 16.9738C27.3668 16.9738 27.8588 16.4824 27.8588 15.875V10.9978H32.7365C33.3433 10.9978 33.8353 10.5064 33.8353 9.89899C33.8353 9.29162 33.3433 8.80015 32.7365 8.80015Z" fill="black"/>
</svg>
