<svg width="28" height="24" viewBox="0 0 28 24" fill="none" xmlns="http://www.w3.org/2000/svg">
<path fill-rule="evenodd" clip-rule="evenodd" d="M12.1031 21.4996C12.1031 20.4502 12.9538 19.5996 14.0031 19.5996H25.4031C26.4525 19.5996 27.3031 20.4502 27.3031 21.4996C27.3031 22.549 26.4525 23.3996 25.4031 23.3996H14.0031C12.9538 23.3996 12.1031 22.549 12.1031 21.4996ZM0.703125 2.49961C0.703125 1.45026 1.55377 0.599609 2.60313 0.599609H25.4031C26.4525 0.599609 27.3031 1.45026 27.3031 2.49961C27.3031 3.54894 26.4525 4.39961 25.4031 4.39961H2.60313C1.55377 4.39961 0.703125 3.54894 0.703125 2.49961ZM0.703125 11.9996C0.703125 10.9503 1.55377 10.0996 2.60313 10.0996H25.4031C26.4525 10.0996 27.3031 10.9503 27.3031 11.9996C27.3031 13.049 26.4525 13.8996 25.4031 13.8996H2.60313C1.55377 13.8996 0.703125 13.049 0.703125 11.9996Z" fill="black"/>
</svg>
