<svg width="29" height="28" viewBox="0 0 29 28" fill="none" xmlns="http://www.w3.org/2000/svg">
<path d="M26.5639 23.3598C26.5639 23.3598 24.9622 24.9329 24.5697 25.3941C23.9303 26.0764 23.1769 26.3987 22.1893 26.3987C22.0944 26.3987 21.9931 26.3986 21.8981 26.3923C20.0179 26.2723 18.2706 25.5394 16.9601 24.914C13.3769 23.1829 10.2305 20.7252 7.61592 17.6106C5.45713 15.0139 4.01372 12.6132 3.05777 10.0355C2.46901 8.46235 2.25377 7.23669 2.34873 6.08053C2.41204 5.34135 2.69692 4.72852 3.22237 4.20414L5.38116 2.04976C5.69137 1.75914 6.02057 1.6012 6.34344 1.6012C6.74227 1.6012 7.06514 1.84127 7.26773 2.04344C7.27406 2.04976 7.28039 2.05608 7.28672 2.0624C7.6729 2.42251 8.04008 2.79527 8.42626 3.19329C8.62251 3.39546 8.82509 3.59763 9.02768 3.80612L10.756 5.53088C11.427 6.20057 11.427 6.81972 10.756 7.48941C10.5724 7.67263 10.3951 7.85584 10.2115 8.03274C9.67975 8.57607 10.0975 8.15918 9.54672 8.65197C9.53406 8.6646 9.52139 8.67092 9.51506 8.68356C8.97062 9.22689 9.07191 9.75759 9.18586 10.1177C9.19219 10.1367 9.19852 10.1556 9.20486 10.1746C9.65434 11.2612 10.2874 12.2847 11.2497 13.5041L11.256 13.5104C13.0033 15.6584 14.8456 17.3327 16.8777 18.6152C17.1373 18.7794 17.4032 18.9121 17.6564 19.0385C17.8843 19.1522 18.0996 19.2596 18.2832 19.3733C18.3085 19.3859 18.3338 19.4049 18.3591 19.4175C18.5744 19.5249 18.777 19.5755 18.9859 19.5755C19.5113 19.5755 19.8405 19.247 19.9482 19.1396L21.1891 17.9012C21.4043 17.6864 21.7462 17.4273 22.145 17.4273C22.5375 17.4273 22.8604 17.6737 23.0566 17.8885C23.063 17.8949 23.063 17.8949 23.0693 17.9012L26.5575 21.3823C27.2096 22.0267 26.5639 23.3598 26.5639 23.3598Z" stroke="black" stroke-width="2.76471" stroke-linecap="round" stroke-linejoin="round"/>
</svg>
