<svg width="40" height="40" viewBox="0 0 40 40" fill="none" xmlns="http://www.w3.org/2000/svg">
<path d="M25.9853 37.7868C25.7603 37.7868 25.5352 37.6618 25.4227 37.4368C25.3227 37.2368 24.4353 35.4118 24.1978 34.6118C24.0978 34.2743 24.2978 33.9368 24.6228 33.8368C24.9603 33.7368 25.2977 33.9368 25.3977 34.2618C25.5602 34.8368 26.2727 36.3368 26.5352 36.8743C26.6852 37.1868 26.5602 37.5618 26.2477 37.7118C26.1727 37.7618 26.0853 37.7868 25.9853 37.7868Z" fill="white"/>
<path d="M29.8617 37.437C29.6742 37.437 29.4867 37.3495 29.3617 37.1995C29.2742 37.087 29.1492 36.937 28.9992 36.762C28.4742 36.137 27.6867 35.1995 27.1367 34.2245C26.9617 33.9245 27.0742 33.537 27.3742 33.3745C27.6742 33.212 28.0617 33.312 28.2242 33.612C28.7117 34.487 29.4617 35.3745 29.9492 35.962C30.1117 36.1495 30.2492 36.312 30.3367 36.437C30.5492 36.712 30.4992 37.0995 30.2242 37.312C30.1242 37.3995 29.9867 37.437 29.8617 37.437Z" fill="white"/>
<path d="M33.8221 36.4246C33.6971 36.4246 33.5721 36.3871 33.4596 36.3121L33.1596 36.0996C32.3846 35.5496 30.9221 34.5246 30.0971 33.6121C29.8596 33.3496 29.8846 32.9621 30.1471 32.7246C30.3971 32.4871 30.7971 32.5121 31.0346 32.7746C31.7596 33.5871 33.1471 34.5621 33.8846 35.0746L34.1971 35.2996C34.4721 35.4996 34.5471 35.8871 34.3346 36.1746C34.2096 36.3246 34.0096 36.4246 33.8221 36.4246Z" fill="white"/>
<path d="M17.6994 17.4122C17.5994 17.4122 17.4869 17.3872 17.3869 17.3372C17.0869 17.1622 16.9744 16.7872 17.1494 16.4872C17.8744 15.1872 19.7994 14.0747 22.2369 12.6497C26.1744 10.3622 31.5494 7.21223 34.8244 1.59973C34.9744 1.33723 35.2994 1.22473 35.5869 1.32473C36.3869 1.62473 37.2994 2.91223 37.7244 4.29973C38.0494 5.34973 38.0369 6.32473 37.7244 7.11223C38.2119 7.57473 38.5369 8.32473 38.6244 9.23723C38.7869 10.7497 38.2744 12.7247 36.7994 13.7247C36.5119 13.9122 36.1244 13.8372 35.9369 13.5497C35.7494 13.2622 35.8244 12.8747 36.1119 12.6872C37.1494 11.9872 37.4994 10.4747 37.3869 9.37473C37.3119 8.63723 37.0244 8.03723 36.6744 7.89973C36.4994 7.82473 36.3619 7.67473 36.3119 7.49973C36.2619 7.32473 36.2869 7.12473 36.3994 6.96223C36.8994 6.24973 36.6994 5.22473 36.5369 4.67473C36.2869 3.84973 35.8744 3.19973 35.5494 2.83723C32.0994 8.36223 26.7869 11.4497 22.8744 13.7372C20.6869 15.0122 18.8119 16.1122 18.2369 17.1122C18.1244 17.2997 17.9119 17.4122 17.6994 17.4122Z" fill="white"/>
<path d="M25.2503 24.4868C24.0628 24.4868 22.7753 24.2493 21.5753 23.7243C21.2503 23.5868 21.1128 23.2118 21.2503 22.8993C21.3878 22.5868 21.7628 22.4368 22.0753 22.5868C24.7378 23.7743 27.5753 23.1368 28.2503 22.3993C28.3503 22.2868 28.3378 22.2618 28.3128 22.2368C28.1878 22.0243 28.2003 21.7743 28.3378 21.5743C28.4753 21.3743 28.7003 21.2618 28.9503 21.3118C31.4003 21.6618 33.7128 19.9743 34.0128 19.3368C33.8753 19.1993 33.8003 19.0118 33.8253 18.8243C33.8503 18.5743 34.0128 18.3743 34.2503 18.2993C35.3503 17.9368 36.5253 16.2993 36.6378 14.9868C36.7003 14.1243 36.2628 13.8993 36.1253 13.8368C35.8128 13.6743 35.7003 13.2993 35.8503 12.9993C36.0128 12.6868 36.3878 12.5743 36.6878 12.7243C37.5378 13.1618 37.9628 13.9993 37.8753 15.0868C37.7503 16.6618 36.6128 18.4118 35.2878 19.1993C35.3003 19.3618 35.2753 19.5243 35.2128 19.6993C34.7753 20.9618 32.1503 22.6243 29.5628 22.6243C29.5503 22.6243 29.5378 22.6243 29.5253 22.6243C29.4628 22.8493 29.3503 23.0618 29.1628 23.2618C28.4753 23.9993 26.9753 24.4868 25.2503 24.4868Z" fill="white"/>
<path d="M32.2256 11.5122C32.0006 11.5122 31.7881 11.3872 31.6756 11.1872C31.5131 10.8747 31.6256 10.4997 31.9381 10.3372C34.0381 9.21224 36.4131 6.92474 36.4381 6.89974C36.6881 6.66224 37.0756 6.66224 37.3256 6.91224C37.5631 7.16224 37.5631 7.54974 37.3131 7.79974C37.2881 7.82474 34.7881 10.2372 32.5256 11.4372C32.4256 11.4872 32.3256 11.5122 32.2256 11.5122Z" fill="white"/>
<path d="M36.8636 7.97423C36.6761 7.97423 36.5011 7.89923 36.3761 7.74923C36.1511 7.48673 36.2011 7.08673 36.4636 6.87423C36.7261 6.64922 37.1511 6.67423 37.3636 6.93673C37.5761 7.19923 37.5636 7.57423 37.3011 7.79923L37.2511 7.83673C37.1511 7.93673 37.0011 7.97423 36.8636 7.97423Z" fill="white"/>
<path d="M31.6973 15.9503C31.4098 15.9503 31.1473 15.7503 31.0848 15.4503C31.0098 15.1128 31.2348 14.7753 31.5723 14.7128C33.7848 14.2378 35.7598 12.9378 36.0348 12.7378C36.2473 12.5503 36.5598 12.5128 36.8098 12.6878C37.0973 12.8878 37.1723 13.2753 36.9723 13.5503C36.9348 13.6128 36.8348 13.7003 36.7723 13.7503C36.3723 14.0253 34.2848 15.4128 31.8348 15.9253C31.7848 15.9378 31.7348 15.9503 31.6973 15.9503Z" fill="white"/>
<path d="M36.4593 13.8244C36.2218 13.8244 35.9968 13.6869 35.8968 13.4619C35.7468 13.1494 35.8843 12.7744 36.1968 12.6244C36.5093 12.4744 36.8968 12.5994 37.0468 12.9119C37.1968 13.2244 37.0718 13.5869 36.7593 13.7369L36.7218 13.7494C36.6343 13.8119 36.5468 13.8244 36.4593 13.8244Z" fill="white"/>
<path d="M32.6743 19.6126C31.7618 19.6126 30.6243 19.5376 29.5368 19.2751C29.1993 19.2001 28.9993 18.8626 29.0743 18.5251C29.1493 18.1876 29.4993 17.9876 29.8243 18.0626C31.8743 18.5626 34.2618 18.2751 34.2868 18.2751C34.6368 18.2251 34.9368 18.4751 34.9868 18.8251C35.0243 19.1626 34.7868 19.4751 34.4368 19.5251C34.3868 19.5251 33.6743 19.6126 32.6743 19.6126Z" fill="white"/>
<path d="M28.8506 22.5377C28.7381 22.5377 27.8381 22.5127 26.3131 21.7127C26.0006 21.5502 25.8881 21.1752 26.0506 20.8752C26.2131 20.5752 26.5881 20.4502 26.8881 20.6127C28.1631 21.2752 28.8506 21.3002 28.8631 21.3002C29.2006 21.3127 29.4756 21.5877 29.4756 21.9252C29.4756 22.2627 29.2006 22.5252 28.8506 22.5377Z" fill="white"/>
<path d="M13.4473 13.5751C13.1348 13.5751 12.8723 13.3501 12.8348 13.0376C12.7848 12.7001 13.0223 12.3751 13.3723 12.3376C13.7098 12.2876 14.0848 12.5251 14.1348 12.8626C14.1848 13.2001 13.9973 13.5126 13.6598 13.5626L13.5473 13.5751C13.4973 13.5751 13.4723 13.5751 13.4473 13.5751Z" fill="white"/>
<path d="M17.7376 17.3866C17.5001 17.3866 17.2751 17.2491 17.1626 17.0116L15.0251 12.2616C14.7251 11.5991 14.0501 11.2241 13.3251 11.3241C12.4251 11.4491 11.8251 12.2491 11.9376 13.1616C11.9876 13.4991 11.7501 13.8241 11.4001 13.8616C11.0501 13.8991 10.7376 13.6616 10.7001 13.3241C10.4876 11.7491 11.5876 10.2991 13.1501 10.0866C14.4001 9.89905 15.6501 10.5866 16.1751 11.7491L18.3126 16.4991C18.4501 16.8116 18.3126 17.1866 18.0001 17.3241C17.9126 17.3741 17.8251 17.3866 17.7376 17.3866Z" fill="white"/>
<path d="M28.0384 38.7865C27.3134 38.7865 26.5634 38.5865 26.0259 38.174C25.7384 38.374 25.3634 38.499 24.9259 38.524C23.6384 38.6115 21.8134 37.824 21.4134 36.699C21.3759 36.549 21.0884 35.0365 20.8134 32.8865C20.6259 31.474 20.2134 31.0365 18.8384 30.824C16.6509 30.4865 14.1759 29.8865 12.3509 26.999C10.3759 23.924 10.4634 20.6365 10.8884 18.4115C11.0884 17.449 11.1259 16.4615 11.0009 15.4365L9.72587 15.3615C9.37587 15.3365 9.11337 15.049 9.13837 14.699C9.16337 14.349 9.46337 14.099 9.80087 14.1115L11.5884 14.2115C11.8884 14.224 12.1259 14.449 12.1759 14.749L12.2259 15.074C12.3884 16.299 12.3509 17.499 12.1134 18.649C11.7384 20.6365 11.6509 23.599 13.4009 26.324C14.9509 28.7615 16.9509 29.2615 19.0259 29.5865C20.9509 29.874 21.7884 30.7615 22.0509 32.724C22.3134 34.8365 22.6009 36.3615 22.6134 36.374C22.7509 36.7365 23.9384 37.3365 24.8509 37.2865C25.1634 37.274 25.3384 37.1865 25.3759 37.024C25.4384 36.7615 25.6509 36.5615 25.9259 36.5365C26.2009 36.5115 26.4509 36.6615 26.5634 36.899C26.8134 37.474 28.0134 37.674 28.7759 37.4115C29.3134 37.2365 29.2634 37.0115 29.2384 36.9365C29.1759 36.674 29.3009 36.399 29.5384 36.2615C29.7759 36.124 30.0759 36.1615 30.2759 36.3365C30.9509 36.9615 31.9884 36.9365 32.6384 36.5865C32.9384 36.424 33.2384 36.1615 33.2009 35.8615C33.1634 35.6365 33.2634 35.4115 33.4509 35.274C33.6384 35.1365 33.8759 35.1115 34.0884 35.2115C34.6259 35.4615 35.4009 34.9865 35.8134 34.399C35.9884 34.1615 36.3259 33.5615 35.9384 33.099C32.6509 31.274 24.6134 27.6115 24.5384 27.574C24.4509 27.5365 24.3634 27.4615 24.3009 27.3865L21.3259 23.524C21.1134 23.249 21.1634 22.8615 21.4384 22.649C21.7134 22.4365 22.1009 22.4865 22.3134 22.7615L25.1884 26.499C26.3259 27.024 33.5509 30.3365 36.6259 32.0615C36.6759 32.0865 36.7259 32.124 36.7634 32.1615C37.5259 32.924 37.5509 34.0865 36.8259 35.124C36.2759 35.9115 35.3009 36.5115 34.3384 36.524C34.1509 36.9865 33.7634 37.4115 33.2259 37.699C32.4384 38.1115 31.2884 38.2615 30.2759 37.8115C30.0509 38.149 29.6759 38.424 29.1759 38.599C28.8134 38.724 28.4259 38.7865 28.0384 38.7865Z" fill="white"/>
<path d="M9.08526 22.9247C9.06026 22.9247 9.03526 22.9247 9.02276 22.9247C7.06026 22.7122 5.03526 20.6497 4.56026 19.3747C4.47276 19.1372 4.43526 18.9247 4.43526 18.7497C3.44776 17.8747 2.46026 15.9497 2.31026 14.4872C2.24776 13.8997 2.33526 13.4747 2.47276 13.1747C1.59776 11.9747 1.24776 10.1622 1.36026 8.9122C1.39776 8.4372 1.51026 8.0622 1.68526 7.7747C0.947756 5.7622 1.57276 2.5997 2.43526 2.0622C2.58526 1.9622 2.77276 1.9372 2.94776 1.9997C3.12276 2.0622 3.26026 2.1872 3.33526 2.3497C5.21026 6.6497 7.56026 9.2372 9.61026 11.3122C9.84776 11.5622 9.84776 11.9497 9.61026 12.1997C9.36026 12.4372 8.97276 12.4372 8.72276 12.1997C6.78526 10.2372 4.61026 7.8622 2.76026 4.0997C2.54776 5.0872 2.44776 6.5872 2.96026 7.5997C3.11026 7.8747 3.02276 8.2122 2.77276 8.3872C2.38526 8.7747 2.52276 11.4747 3.69776 12.6872C3.81026 12.8122 3.88526 12.9747 3.87276 13.1372C3.87276 13.3122 3.79776 13.4622 3.66026 13.5747C3.57276 13.6497 3.49776 13.8872 3.54776 14.3372C3.68526 15.6872 4.76026 17.5372 5.46026 17.9372C5.62276 18.0372 5.73526 18.1997 5.76026 18.3872C5.78526 18.5247 5.74776 18.6747 5.68526 18.7997C5.78526 19.3997 7.52276 21.4872 9.14776 21.6622C9.48526 21.6997 9.73526 22.0122 9.69776 22.3497C9.66026 22.6872 9.39776 22.9247 9.08526 22.9247Z" fill="white"/>
</svg>
