<svg width="45" height="44" viewBox="0 0 45 44" fill="none" xmlns="http://www.w3.org/2000/svg">
<path d="M28.6637 41.5663C28.4162 41.5663 28.1687 41.4288 28.0449 41.1813C27.9349 40.9613 26.9587 38.9538 26.6974 38.0738C26.5874 37.7025 26.8074 37.3313 27.1649 37.2213C27.5362 37.1113 27.9074 37.3313 28.0174 37.6888C28.1962 38.3213 28.9799 39.9713 29.2687 40.5625C29.4337 40.9063 29.2962 41.3188 28.9524 41.4838C28.8699 41.5388 28.7737 41.5663 28.6637 41.5663Z" fill="black"/>
<path d="M32.9266 41.1813C32.7204 41.1813 32.5141 41.085 32.3766 40.92C32.2804 40.7963 32.1429 40.6312 31.9779 40.4388C31.4004 39.7513 30.5341 38.72 29.9291 37.6475C29.7366 37.3175 29.8604 36.8913 30.1904 36.7125C30.5204 36.5338 30.9466 36.6437 31.1254 36.9737C31.6616 37.9362 32.4866 38.9125 33.0229 39.5588C33.2016 39.765 33.3529 39.9437 33.4491 40.0812C33.6829 40.3837 33.6279 40.81 33.3254 41.0438C33.2154 41.14 33.0641 41.1813 32.9266 41.1813Z" fill="black"/>
<path d="M37.2852 40.0675C37.1477 40.0675 37.0102 40.0263 36.8865 39.9438L36.5565 39.71C35.704 39.105 34.0952 37.9775 33.1877 36.9738C32.9265 36.685 32.954 36.2588 33.2427 35.9975C33.5177 35.7363 33.9577 35.7638 34.219 36.0525C35.0165 36.9463 36.5427 38.0188 37.354 38.5825L37.6977 38.83C38.0002 39.05 38.0827 39.4763 37.849 39.7925C37.7115 39.9575 37.4915 40.0675 37.2852 40.0675Z" fill="black"/>
<path d="M19.5478 19.1538C19.4378 19.1538 19.3141 19.1263 19.2041 19.0713C18.8741 18.8787 18.7503 18.4662 18.9428 18.1362C19.7403 16.7063 21.8578 15.4825 24.5391 13.915C28.8703 11.3988 34.7828 7.93375 38.3853 1.76C38.5503 1.47125 38.9078 1.3475 39.2241 1.4575C40.1041 1.7875 41.1078 3.20375 41.5753 4.73C41.9328 5.885 41.9191 6.9575 41.5753 7.82375C42.1116 8.3325 42.4691 9.1575 42.5653 10.1613C42.7441 11.825 42.1803 13.9975 40.5578 15.0975C40.2416 15.3038 39.8153 15.2213 39.6091 14.905C39.4028 14.5888 39.4853 14.1625 39.8016 13.9563C40.9428 13.1863 41.3278 11.5225 41.2041 10.3125C41.1216 9.50125 40.8053 8.84125 40.4203 8.69C40.2278 8.6075 40.0766 8.4425 40.0216 8.25C39.9666 8.0575 39.9941 7.8375 40.1178 7.65875C40.6678 6.875 40.4478 5.7475 40.2691 5.1425C39.9941 4.235 39.5403 3.52 39.1828 3.12125C35.3878 9.19875 29.5441 12.595 25.2403 15.1113C22.8341 16.5138 20.7716 17.7238 20.1391 18.8237C20.0153 19.03 19.7816 19.1538 19.5478 19.1538Z" fill="black"/>
<path d="M27.8529 26.9363C26.5466 26.9363 25.1304 26.675 23.8104 26.0975C23.4529 25.9463 23.3016 25.5338 23.4529 25.19C23.6041 24.8463 24.0166 24.6813 24.3604 24.8463C27.2891 26.1525 30.4104 25.4513 31.1529 24.64C31.2629 24.5163 31.2491 24.4888 31.2216 24.4613C31.0841 24.2275 31.0979 23.9525 31.2491 23.7325C31.4004 23.5125 31.6479 23.3887 31.9229 23.4437C34.6179 23.8287 37.1616 21.9725 37.4916 21.2713C37.3403 21.12 37.2578 20.9138 37.2853 20.7075C37.3128 20.4325 37.4916 20.2125 37.7528 20.13C38.9628 19.7313 40.2554 17.93 40.3791 16.4862C40.4478 15.5375 39.9666 15.29 39.8153 15.2212C39.4716 15.0425 39.3479 14.63 39.5128 14.3C39.6916 13.9562 40.1041 13.8325 40.4341 13.9975C41.3691 14.4788 41.8366 15.4 41.7403 16.5962C41.6028 18.3288 40.3516 20.2537 38.8941 21.12C38.9078 21.2987 38.8804 21.4775 38.8116 21.67C38.3303 23.0588 35.4429 24.8875 32.5966 24.8875C32.5829 24.8875 32.5691 24.8875 32.5554 24.8875C32.4866 25.135 32.3629 25.3688 32.1566 25.5888C31.4004 26.4 29.7504 26.9363 27.8529 26.9363Z" fill="black"/>
<path d="M35.5254 12.6638C35.2779 12.6638 35.0441 12.5263 34.9204 12.3063C34.7416 11.9625 34.8654 11.55 35.2091 11.3713C37.5191 10.1338 40.1316 7.6175 40.1591 7.59C40.4341 7.32875 40.8604 7.32875 41.1354 7.60375C41.3966 7.87875 41.3966 8.305 41.1216 8.58C41.0941 8.6075 38.3441 11.2613 35.8554 12.5813C35.7454 12.6363 35.6354 12.6638 35.5254 12.6638Z" fill="black"/>
<path d="M40.6258 8.7725C40.4196 8.7725 40.2271 8.69 40.0896 8.525C39.8421 8.23625 39.8971 7.79625 40.1858 7.5625C40.4746 7.315 40.9421 7.3425 41.1758 7.63125C41.4096 7.92 41.3958 8.3325 41.1071 8.58L41.0521 8.62125C40.9421 8.73125 40.7771 8.7725 40.6258 8.7725Z" fill="black"/>
<path d="M34.9475 17.545C34.6312 17.545 34.3425 17.325 34.2737 16.995C34.1912 16.6237 34.4387 16.2525 34.81 16.1837C37.2437 15.6612 39.4162 14.2312 39.7187 14.0112C39.9525 13.805 40.2962 13.7637 40.5712 13.9562C40.8875 14.1762 40.97 14.6025 40.75 14.905C40.7087 14.9737 40.5987 15.07 40.53 15.125C40.09 15.4275 37.7937 16.9537 35.0987 17.5175C35.0437 17.5312 34.9887 17.545 34.9475 17.545Z" fill="black"/>
<path d="M40.1857 15.2075C39.9245 15.2075 39.6769 15.0563 39.5669 14.8088C39.4019 14.465 39.5532 14.0525 39.8969 13.8875C40.2407 13.7225 40.667 13.86 40.832 14.2038C40.997 14.5475 40.8595 14.9463 40.5157 15.1113L40.4744 15.125C40.3782 15.1938 40.282 15.2075 40.1857 15.2075Z" fill="black"/>
<path d="M36.0202 21.5738C35.0165 21.5738 33.7652 21.4913 32.569 21.2025C32.1977 21.12 31.9777 20.7488 32.0602 20.3775C32.1427 20.0063 32.5277 19.7863 32.8852 19.8688C35.1402 20.4188 37.7665 20.1025 37.794 20.1025C38.179 20.0475 38.509 20.3225 38.564 20.7075C38.6052 21.0788 38.344 21.4225 37.959 21.4775C37.904 21.4775 37.1202 21.5738 36.0202 21.5738Z" fill="black"/>
<path d="M31.8129 24.7912C31.6891 24.7912 30.6991 24.7637 29.0216 23.8837C28.6779 23.705 28.5541 23.2925 28.7329 22.9625C28.9116 22.6325 29.3241 22.495 29.6541 22.6737C31.0566 23.4025 31.8129 23.43 31.8266 23.43C32.1979 23.4437 32.5004 23.7462 32.5004 24.1175C32.5004 24.4887 32.1979 24.7775 31.8129 24.7912Z" fill="black"/>
<path d="M14.8725 14.9325C14.5287 14.9325 14.24 14.685 14.1987 14.3413C14.1437 13.97 14.405 13.6125 14.79 13.5712C15.1612 13.5162 15.5737 13.7775 15.6287 14.1488C15.6837 14.52 15.4775 14.8638 15.1062 14.9188L14.9825 14.9325C14.9275 14.9325 14.9 14.9325 14.8725 14.9325Z" fill="black"/>
<path d="M19.5885 19.1262C19.3273 19.1262 19.0798 18.975 18.956 18.7137L16.6048 13.4887C16.2748 12.76 15.5323 12.3475 14.7348 12.4575C13.7448 12.595 13.0848 13.475 13.2085 14.4787C13.2635 14.85 13.0023 15.2075 12.6173 15.2487C12.2323 15.29 11.8885 15.0287 11.8473 14.6575C11.6135 12.925 12.8235 11.33 14.5423 11.0962C15.9173 10.89 17.2923 11.6462 17.8698 12.925L20.221 18.15C20.3723 18.4937 20.221 18.9062 19.8773 19.0575C19.781 19.1125 19.6848 19.1262 19.5885 19.1262Z" fill="black"/>
<path d="M30.9188 42.6663C30.1213 42.6663 29.2963 42.4463 28.705 41.9925C28.3888 42.2125 27.9763 42.35 27.495 42.3775C26.0788 42.4737 24.0713 41.6075 23.6313 40.37C23.59 40.205 23.2738 38.5412 22.9713 36.1762C22.765 34.6225 22.3113 34.1412 20.7988 33.9075C18.3925 33.5362 15.67 32.8762 13.6625 29.7C11.49 26.3175 11.5863 22.7012 12.0538 20.2537C12.2738 19.195 12.315 18.1087 12.1775 16.9812L10.775 16.8987C10.39 16.8712 10.1013 16.555 10.1288 16.17C10.1563 15.785 10.4863 15.51 10.8575 15.5237L12.8238 15.6337C13.1538 15.6475 13.415 15.895 13.47 16.225L13.525 16.5825C13.7038 17.93 13.6625 19.25 13.4013 20.515C12.9888 22.7012 12.8925 25.96 14.8175 28.9575C16.5225 31.6387 18.7225 32.1887 21.005 32.5462C23.1225 32.8625 24.0438 33.8387 24.3325 35.9975C24.6213 38.3212 24.9375 39.9987 24.9513 40.0125C25.1025 40.4112 26.4088 41.0712 27.4125 41.0162C27.7563 41.0025 27.9488 40.9062 27.99 40.7275C28.0588 40.4387 28.2925 40.2187 28.595 40.1912C28.8975 40.1637 29.1725 40.3287 29.2963 40.59C29.5713 41.2225 30.8913 41.4425 31.73 41.1537C32.3213 40.9612 32.2663 40.7137 32.2388 40.6312C32.17 40.3425 32.3075 40.04 32.5688 39.8887C32.83 39.7375 33.16 39.7787 33.38 39.9712C34.1225 40.6587 35.2638 40.6313 35.9788 40.2463C36.3088 40.0675 36.6388 39.7787 36.5975 39.4487C36.5563 39.2013 36.6663 38.9537 36.8725 38.8025C37.0788 38.6512 37.34 38.6237 37.5738 38.7337C38.165 39.0087 39.0175 38.4862 39.4713 37.84C39.6638 37.5787 40.035 36.9187 39.6088 36.41C35.9925 34.4025 27.1513 30.3737 27.0688 30.3325C26.9725 30.2912 26.8763 30.2087 26.8075 30.1262L23.535 25.8775C23.3013 25.575 23.3563 25.1487 23.6588 24.915C23.9613 24.6812 24.3875 24.7362 24.6213 25.0387L27.7838 29.15C29.035 29.7275 36.9825 33.3712 40.365 35.2687C40.42 35.2962 40.475 35.3375 40.5163 35.3787C41.355 36.2175 41.3825 37.4963 40.585 38.6375C39.98 39.5037 38.9075 40.1637 37.8488 40.1775C37.6425 40.6862 37.2163 41.1537 36.625 41.47C35.7588 41.9237 34.4938 42.0887 33.38 41.5937C33.1325 41.965 32.72 42.2675 32.17 42.46C31.7713 42.5975 31.345 42.6663 30.9188 42.6663Z" fill="black"/>
<path d="M10.0737 25.2175C10.0462 25.2175 10.0187 25.2175 10.0049 25.2175C7.84617 24.9837 5.61867 22.715 5.09617 21.3125C4.99992 21.0512 4.95867 20.8175 4.95867 20.625C3.87241 19.6625 2.78616 17.545 2.62116 15.9362C2.55241 15.29 2.64866 14.8225 2.79991 14.4925C1.83741 13.1725 1.45241 11.1787 1.57616 9.80374C1.61741 9.28125 1.74116 8.86874 1.93366 8.55249C1.12241 6.33874 1.80991 2.86 2.75866 2.26875C2.92366 2.15875 3.12991 2.13125 3.32241 2.2C3.51491 2.26875 3.66616 2.40625 3.74866 2.585C5.81117 7.315 8.39617 10.1612 10.6512 12.4437C10.9124 12.7187 10.9124 13.145 10.6512 13.42C10.3762 13.6812 9.94992 13.6812 9.67492 13.42C7.54367 11.2612 5.15117 8.64875 3.11616 4.51C2.88241 5.59625 2.77241 7.24624 3.33616 8.35999C3.50116 8.66249 3.40491 9.03374 3.12991 9.22624C2.70366 9.65249 2.85491 12.6225 4.14741 13.9562C4.27116 14.0937 4.35366 14.2725 4.33992 14.4512C4.33992 14.6437 4.25742 14.8087 4.10616 14.9325C4.00991 15.015 3.92741 15.2762 3.98241 15.7712C4.13366 17.2562 5.31616 19.2912 6.08616 19.7312C6.26491 19.8412 6.38867 20.02 6.41617 20.2262C6.44367 20.3775 6.40242 20.5425 6.33367 20.68C6.44367 21.34 8.35492 23.6362 10.1424 23.8287C10.5137 23.87 10.7887 24.2137 10.7474 24.585C10.7062 24.9562 10.4174 25.2175 10.0737 25.2175Z" fill="black"/>
</svg>
