<svg width="42" height="42" viewBox="0 0 42 42" fill="none" xmlns="http://www.w3.org/2000/svg">
<path d="M39.0969 19.406C38.7601 19.3458 38.4235 19.5022 38.2671 19.8028L38.1588 19.9952C38.0867 20.1275 37.9064 20.4041 37.7139 20.5244C37.5215 20.6566 37.2931 20.7288 37.0526 20.7649C36.8 20.813 36.4993 20.7649 36.2107 20.7288C36.1987 20.7288 36.1867 20.7288 36.1747 20.7167C36.1867 20.4402 36.1987 20.1516 36.2348 19.863C36.3618 18.5669 36.6804 16.4994 36.8962 15.2211C36.9443 14.9325 37.0045 14.6439 37.0526 14.3553L37.3892 13.5496C37.422 13.4702 38.3227 11.2864 38.2671 11.4211L38.4715 10.9161L38.5798 10.6635C38.6279 10.5433 38.676 10.3989 38.7121 10.2667C38.7721 10.0021 38.7842 9.72554 38.7481 9.44898L38.6399 8.89577L38.4474 7.81354L38.0507 5.64897C37.9905 5.32427 37.6899 5.11986 37.3773 5.17995C37.0766 5.22804 36.8721 5.50469 36.8962 5.8053L37.1247 8.00591L37.2449 9.10024L37.2931 9.62936C37.3051 9.71354 37.281 9.80973 37.2569 9.89392L35.826 12.7439C35.4292 12.5876 35.0564 12.3351 34.7557 11.9743C34.5152 11.6977 34.3107 11.361 34.1664 10.9882C34.0101 10.6275 33.9019 10.1945 33.8538 9.82173V9.76164C33.8177 9.48508 33.5772 9.29261 33.3006 9.32875C33.0842 9.35275 32.9038 9.53317 32.8797 9.74959C32.7956 10.2908 32.7956 10.7838 32.8557 11.3129C32.9278 11.83 33.0721 12.3591 33.3247 12.8642C33.5532 13.3813 33.9019 13.8623 34.3348 14.2591C34.5512 14.4756 34.7918 14.656 35.0443 14.8123C34.8038 15.7503 34.5753 16.6883 34.3709 17.6383C34.2385 18.2756 34.1063 18.9129 33.9981 19.5503C33.926 20.0313 33.8418 20.4762 33.8057 21.0053C32.4829 22.0756 31.2322 23.194 30.0297 24.3965C29.3562 25.0699 28.7189 25.7915 28.1177 26.5611C27.6246 27.2105 27.1436 27.8598 26.7948 28.7617L26.7829 28.7738C26.7588 28.858 26.7227 28.9422 26.6867 29.0503L26.5303 29.2067C26.5183 29.2187 26.5183 29.2307 26.5183 29.2307L25.113 30.7681C22.532 30.0085 19.7443 30.0082 17.1614 30.7683L15.756 29.2307C15.756 29.2307 15.756 29.2187 15.744 29.2067L15.5876 29.0503C15.5516 28.9422 15.5155 28.858 15.4914 28.7738L15.4795 28.7617C15.1307 27.8598 14.6497 27.2105 14.1566 26.5611C13.5554 25.7915 12.918 25.0699 12.2446 24.3965C11.0421 23.194 9.79138 22.0756 8.46863 21.0053C8.43249 20.4762 8.34831 20.0313 8.27617 19.5503C8.16798 18.9129 8.03575 18.2756 7.90337 17.6383C7.699 16.6883 7.47049 15.7503 7.22998 14.8123C7.48254 14.656 7.72305 14.4756 7.93952 14.2591C8.3724 13.8623 8.7211 13.3813 8.94961 12.8642C9.20217 12.3591 9.34645 11.83 9.41859 11.3129C9.47873 10.7838 9.47873 10.2908 9.39459 9.74959C9.37054 9.53317 9.19012 9.35275 8.97366 9.32875C8.6971 9.29261 8.45659 9.48508 8.42049 9.76164V9.82173C8.3724 10.1945 8.26421 10.6275 8.10789 10.9882C7.96356 11.361 7.7591 11.6977 7.51858 11.9743C7.21793 12.3351 6.84514 12.5876 6.44835 12.7439L5.01736 9.89392C4.99327 9.80973 4.96918 9.71354 4.98122 9.62936L5.02936 9.10024L5.1496 8.00591L5.37811 5.8053C5.40216 5.50469 5.19769 5.22804 4.89704 5.17995C4.58443 5.11986 4.28383 5.32427 4.22364 5.64897L3.82685 7.81354L3.63438 8.89577L3.52619 9.44898C3.4901 9.72554 3.50215 10.0021 3.56224 10.2667C3.59833 10.3989 3.64643 10.5433 3.69452 10.6635L3.80275 10.9161L4.00717 11.4211C3.95162 11.2864 4.8523 13.4702 4.88508 13.5496L5.22174 14.3553C5.26983 14.6439 5.33002 14.9325 5.37811 15.2211C5.59415 16.5008 5.91254 18.5676 6.03946 19.863C6.0756 20.1516 6.0876 20.4402 6.0996 20.7167C6.0876 20.7288 6.0756 20.7288 6.06355 20.7288C5.77495 20.7649 5.4743 20.813 5.22174 20.7649C4.98122 20.7288 4.75276 20.6566 4.56038 20.5244C4.36792 20.4041 4.18759 20.1275 4.11545 19.9952L4.00717 19.8028C3.85085 19.5022 3.51415 19.3458 3.1774 19.406C2.75656 19.5022 2.49196 19.899 2.57614 20.3199C2.70842 20.9452 2.94894 21.3662 3.33377 21.7991C3.70652 22.2079 4.19964 22.5085 4.70466 22.6769C5.22174 22.8693 5.72681 22.8933 6.21988 22.9174C6.46039 22.9174 6.70086 22.8933 6.92932 22.8693H6.94137C8.19207 23.8674 9.40659 24.9617 10.537 26.0921C11.1503 26.7174 11.7395 27.3668 12.2566 28.0282C12.5813 28.449 12.8819 28.894 13.0984 29.3149C12.942 29.4351 12.7857 29.5434 12.6293 29.6276C12.2326 29.8681 11.8117 29.9763 11.3667 30.0124C10.9338 30.0605 10.4768 29.9763 10.0199 29.7959C9.58696 29.6156 9.11799 29.3029 8.79333 28.9902L8.73315 28.9422C8.51668 28.7376 8.19207 28.7136 7.93952 28.894C7.67491 29.0985 7.61482 29.4833 7.81919 29.7599C8.25217 30.337 8.7211 30.758 9.29836 31.1427C9.87557 31.5036 10.5731 31.7681 11.2946 31.8402C12.0161 31.9003 12.7857 31.8282 13.4472 31.5637C13.7478 31.4674 14.0243 31.3472 14.2889 31.2029L14.7702 31.7265C12.9745 32.6455 11.376 33.9554 10.0937 35.6086C9.76058 36.0378 9.83848 36.6563 10.2681 36.9894C10.4474 37.1287 10.6598 37.1961 10.8708 37.1961C11.1644 37.1961 11.4552 37.0653 11.6489 36.8149C16.461 30.6121 25.8206 30.6203 30.6254 36.8149C30.958 37.2456 31.5775 37.3224 32.0062 36.9894C32.4358 36.6563 32.5137 36.0382 32.1806 35.6086C30.8983 33.9553 29.2998 32.6454 27.5043 31.7264L27.9854 31.2029C28.25 31.3472 28.5265 31.4674 28.8271 31.5637C29.4886 31.8282 30.2582 31.9003 30.9797 31.8402C31.7012 31.7681 32.3987 31.5036 32.9759 31.1427C33.5532 30.758 34.0221 30.337 34.4551 29.7599C34.6595 29.4833 34.5994 29.0985 34.3348 28.894C34.0822 28.7136 33.7576 28.7376 33.5411 28.9422L33.481 28.9902C33.1563 29.3029 32.6873 29.6156 32.2544 29.7959C31.7975 29.9763 31.3405 30.0605 30.9076 30.0124C30.4626 29.9763 30.0417 29.8681 29.6449 29.6276C29.4886 29.5434 29.3322 29.4351 29.1759 29.3149C29.3924 28.894 29.693 28.449 30.0177 28.0282C30.5348 27.3668 31.124 26.7174 31.7373 26.0921C32.8677 24.9617 34.0822 23.8674 35.3329 22.8693H35.345C35.5734 22.8933 35.8139 22.9174 36.0544 22.9174C36.5475 22.8933 37.0526 22.8693 37.5696 22.6769C38.0747 22.5085 38.5678 22.2079 38.9405 21.7991C39.3254 21.3662 39.5659 20.9452 39.6982 20.3199C39.7823 19.899 39.5177 19.5022 39.0969 19.406Z" fill="black"/>
</svg>
