<svg width="44" height="40" viewBox="0 0 44 40" fill="none" xmlns="http://www.w3.org/2000/svg">
<path d="M7.16835 3.04649C4.75086 3.87716 3.00779 5.83722 1.77344 8.19166L7.35036 7.58498" stroke="black" stroke-width="1.64635" stroke-miterlimit="10" stroke-linecap="round" stroke-linejoin="round"/>
<path d="M32.0444 15.64C30.4904 18.9371 27.0252 22.792 21.7236 22.8689C13.6709 22.988 13.5053 13.6892 19.6655 11.6218" stroke="black" stroke-width="1.64635" stroke-miterlimit="10" stroke-linecap="round" stroke-linejoin="round"/>
<path d="M31.5313 24.388C29.8349 27.7621 26.4514 30.0349 22.3936 30.6813C22.4099 30.833 22.4192 30.9869 22.4192 31.1433C22.4192 33.017 21.1849 34.5338 19.6634 34.5338C18.1419 34.5338 16.91 33.0171 16.91 31.1433C16.91 30.9543 16.9217 30.7676 16.9474 30.5879C16.1914 30.4479 15.4307 30.2542 14.6653 30.0069C9.31004 28.2615 5.14025 24.2924 6.78998 17.6047C7.32899 15.416 10.4161 12.5365 10.0591 10.1354C9.82115 8.55567 8.57972 8.2897 7.34998 7.58498C4.39355 5.88389 7.119 1.0047 11.8278 1C15.5566 0.995312 16.4713 4.74281 15.4749 7.62696C14.3386 10.9194 16.7817 12.5691 19.6658 11.6194C28.5725 8.691 35.9601 15.577 31.5313 24.388Z" stroke="black" stroke-width="1.64635" stroke-miterlimit="10" stroke-linecap="round" stroke-linejoin="round"/>
<path d="M30.0098 26.6468L37.7078 26.4625C39.3062 26.4228 40.4145 24.7824 40.2045 23.198C39.9921 21.6137 38.4917 20.3279 36.9401 20.7013" stroke="black" stroke-width="1.64635" stroke-miterlimit="10" stroke-linecap="round" stroke-linejoin="round"/>
<path d="M32.5234 21.7676L40.3335 19.8845C41.8875 19.5088 42.6365 17.6818 42.1022 16.1744C41.5702 14.6693 39.8364 13.7196 38.3944 14.4056" stroke="black" stroke-width="1.64635" stroke-miterlimit="10" stroke-linecap="round" stroke-linejoin="round"/>
<path d="M32.5977 17.1661L40.781 13.2692C42.223 12.5832 42.5777 10.6394 41.7447 9.27676C40.914 7.91169 39.0215 7.34 37.7522 8.31069" stroke="black" stroke-width="1.64635" stroke-miterlimit="10" stroke-linecap="round" stroke-linejoin="round"/>
<path d="M30.7005 13.6939L39.8103 6.73794C41.082 5.76956 41.0283 3.79312 39.9316 2.63112C38.8349 1.46905 36.8678 1.29874 35.8248 2.50979L27.8818 11.7315" stroke="black" stroke-width="1.64635" stroke-miterlimit="10" stroke-linecap="round" stroke-linejoin="round"/>
<path d="M7.35059 7.58498C8.16965 10.0771 6.08117 11.3255 4.40815 12.8306C2.85878 14.2236 2.87746 16.0997 3.56341 16.9071C4.26344 17.7308 5.21083 18.0015 6.79058 17.6048" stroke="black" stroke-width="1.64635" stroke-miterlimit="10" stroke-linecap="round" stroke-linejoin="round"/>
<path d="M10.9951 4.29484V4.99717" stroke="black" stroke-width="1.64635" stroke-miterlimit="10" stroke-linecap="round" stroke-linejoin="round"/>
<path d="M19.6641 34.5338V39" stroke="black" stroke-width="1.64635" stroke-miterlimit="10" stroke-linecap="round" stroke-linejoin="round"/>
<path d="M14.334 39H21.6353" stroke="black" stroke-width="1.64635" stroke-miterlimit="10" stroke-linecap="round" stroke-linejoin="round"/>
</svg>
