<svg width="13" height="13" viewBox="0 0 13 13" fill="none" xmlns="http://www.w3.org/2000/svg">
<g clip-path="url(#clip0_486_1304)">
<path d="M11.8065 13C11.6115 13 11.4815 12.935 11.2735 12.87L9.16748 11.817C7.98448 12.415 6.67148 12.61 5.34548 12.415C2.70648 12.025 0.600482 9.919 0.145482 7.28C-0.114518 5.174 0.535482 3.068 2.12148 1.69C3.70748 0.234004 5.81348 -0.298996 7.91948 0.156004C10.2205 0.689004 12.0015 2.6 12.4695 4.901C12.7295 6.214 12.5995 7.54 12.0795 8.723L12.8725 11.492C13.0025 11.947 12.8725 12.415 12.5475 12.675C12.3265 12.87 12.0665 13 11.8065 13ZM9.23248 10.504C9.42748 10.504 9.62248 10.569 9.83048 10.634L11.5465 11.492L10.8185 9.126C10.7535 8.866 10.7535 8.528 10.8835 8.203C11.2735 7.28 11.4165 6.227 11.2085 5.174C10.8185 3.328 9.42748 1.885 7.58148 1.417C5.86548 1.027 4.22748 1.417 2.97948 2.6C1.79648 3.718 1.19848 5.434 1.47148 7.072C1.79648 9.113 3.51248 10.829 5.55348 11.089C6.60648 11.219 7.65948 11.089 8.58248 10.634C8.77748 10.569 9.03748 10.504 9.23248 10.504Z" fill="black"/>
<path d="M3.57534 7.07199C4.0851 7.07199 4.49834 6.65875 4.49834 6.14899C4.49834 5.63923 4.0851 5.22599 3.57534 5.22599C3.06558 5.22599 2.65234 5.63923 2.65234 6.14899C2.65234 6.65875 3.06558 7.07199 3.57534 7.07199Z" fill="black"/>
<path d="M6.46987 7.07199C6.97963 7.07199 7.39288 6.65875 7.39288 6.14899C7.39288 5.63923 6.97963 5.22599 6.46987 5.22599C5.96012 5.22599 5.54688 5.63923 5.54688 6.14899C5.54688 6.65875 5.96012 7.07199 6.46987 7.07199Z" fill="black"/>
<path d="M9.37027 7.072C9.88002 7.072 10.2933 6.65876 10.2933 6.149C10.2933 5.63924 9.88002 5.226 9.37027 5.226C8.86051 5.226 8.44727 5.63924 8.44727 6.149C8.44727 6.65876 8.86051 7.072 9.37027 7.072Z" fill="black"/>
</g>
<defs>
<clipPath id="clip0_486_1304">
<rect width="13" height="13" fill="white"/>
</clipPath>
</defs>
</svg>
